<svg width="21" height="22" viewBox="0 0 21 22" fill="none" xmlns="http://www.w3.org/2000/svg">
<path d="M16 13.586V10C16 6.783 13.815 4.073 10.855 3.258C10.562 2.52 9.846 2 9 2C8.154 2 7.438 2.52 7.145 3.258C4.185 4.074 2 6.783 2 10V13.586L0.293001 15.293C0.199958 15.3857 0.126171 15.4959 0.0758854 15.6172C0.0256001 15.7386 -0.000189449 15.8687 1.04767e-06 16V18C1.04767e-06 18.2652 0.105358 18.5196 0.292894 18.7071C0.480431 18.8946 0.734785 19 1 19H17C17.2652 19 17.5196 18.8946 17.7071 18.7071C17.8946 18.5196 18 18.2652 18 18V16C18.0002 15.8687 17.9744 15.7386 17.9241 15.6172C17.8738 15.4959 17.8 15.3857 17.707 15.293L16 13.586ZM16 17H2V16.414L3.707 14.707C3.80004 14.6143 3.87383 14.5041 3.92412 14.3828C3.9744 14.2614 4.00019 14.1313 4 14V10C4 7.243 6.243 5 9 5C11.757 5 14 7.243 14 10V14C14 14.266 14.105 14.52 14.293 14.707L16 16.414V17ZM9 22C9.6193 22.0008 10.2235 21.8086 10.7285 21.4502C11.2335 21.0917 11.6143 20.5849 11.818 20H6.182C6.38566 20.5849 6.76648 21.0917 7.27151 21.4502C7.77654 21.8086 8.3807 22.0008 9 22Z" fill="white" fill-opacity="0.7"/>
<circle cx="15" cy="6.00098" r="5" fill="#FE2C55" stroke="#111216" stroke-width="2"/>
</svg>
