<svg width="16" height="8" viewBox="0 0 16 8" fill="none" xmlns="http://www.w3.org/2000/svg">
<path d="M0.183316 4.44241C0.183504 4.4426 0.18366 4.44282 0.183879 4.443L3.44963 7.693C3.69428 7.93647 4.09 7.93557 4.33353 7.69088C4.57703 7.44622 4.5761 7.0505 4.33144 6.807L2.13881 4.625L15.375 4.625C15.7202 4.625 16 4.34519 16 4C16 3.65482 15.7202 3.375 15.375 3.375L2.13885 3.375L4.33141 1.193C4.57607 0.949505 4.577 0.553786 4.3335 0.30913C4.08997 0.0644113 3.69422 0.0635678 3.4496 0.307006L0.183847 3.557C0.183659 3.55719 0.183503 3.55741 0.183284 3.5576C-0.0614971 3.80191 -0.060715 4.19891 0.183316 4.44241Z" fill="white"/>
</svg>
