<svg width="31" height="31" viewBox="0 0 31 31" fill="none" xmlns="http://www.w3.org/2000/svg">
<path d="M30.814 15.4688C30.814 23.839 24.0309 30.625 15.6556 30.625C7.28459 30.625 0.5 23.839 0.5 15.4688C0.5 7.09295 7.28434 0.3125 15.6556 0.3125C24.0309 0.3125 30.814 7.09295 30.814 15.4688Z" fill="url(#paint0_linear_134_10506)"/>
<path d="M28.5318 15.4688C28.5318 22.5807 22.7648 28.3421 15.6559 28.3421C8.54623 28.3421 2.78125 22.5809 2.78125 15.4688C2.78125 8.35853 8.54623 2.59326 15.6559 2.59326C22.7648 2.59326 28.5318 8.35853 28.5318 15.4688Z" fill="url(#paint1_linear_134_10506)"/>
<path d="M27.0247 15.4689C27.0247 21.747 21.9343 26.8348 15.6552 26.8348C9.37609 26.8348 4.28613 21.747 4.28613 15.4689C4.28613 9.18962 9.37609 4.10156 15.6552 4.10156C21.9343 4.10156 27.0247 9.18962 27.0247 15.4689Z" fill="url(#paint2_linear_134_10506)"/>
<path d="M26.5754 15.4689C26.5754 21.4941 21.6858 26.384 15.6556 26.384C9.62478 26.384 4.73828 21.4941 4.73828 15.4689C4.73828 9.43811 9.62478 4.55273 15.6556 4.55273C21.6861 4.55273 26.5754 9.43811 26.5754 15.4689Z" fill="url(#paint3_radial_134_10506)"/>
<path d="M15.6559 2.59326C8.54623 2.59326 2.78125 8.35853 2.78125 15.4688C2.78125 22.5807 8.54623 28.3421 15.6559 28.3421C22.7651 28.3421 28.5318 22.5809 28.5318 15.4688C28.5318 8.35853 22.7648 2.59326 15.6559 2.59326ZM15.6559 28.1144C8.68102 28.1144 3.00499 22.4398 3.00499 15.4688C3.00499 8.49255 8.68077 2.81925 15.6559 2.81925C22.6303 2.81925 28.3063 8.49255 28.3063 15.4688C28.3061 22.4398 22.6303 28.1144 15.6559 28.1144Z" fill="url(#paint4_linear_134_10506)"/>
<path d="M15.6552 4.10156C9.37609 4.10156 4.28613 9.18962 4.28613 15.4689C4.28613 21.747 9.37609 26.8348 15.6552 26.8348C21.9343 26.8348 27.0247 21.747 27.0247 15.4689C27.0247 9.18962 21.9343 4.10156 15.6552 4.10156ZM15.6552 26.6116C9.51064 26.6116 4.51088 21.6114 4.51088 15.4689C4.51088 9.32364 9.51064 4.32654 15.6552 4.32654C21.8013 4.32654 26.799 9.3239 26.799 15.4689C26.799 21.6114 21.8013 26.6116 15.6552 26.6116Z" fill="url(#paint5_linear_134_10506)"/>
<path d="M15.6556 0.3125C7.28459 0.3125 0.5 7.0932 0.5 15.4688C0.5 23.839 7.28434 30.625 15.6556 30.625C24.0312 30.625 30.814 23.839 30.814 15.4688C30.814 7.09295 24.0309 0.3125 15.6556 0.3125ZM15.6556 30.4C7.4237 30.4 0.720949 23.6996 0.720949 15.4688C0.720949 7.23406 7.4237 0.535956 15.6556 0.535956C23.8921 0.535956 30.5913 7.23406 30.5913 15.4688C30.5913 23.6994 23.8921 30.4 15.6556 30.4Z" fill="url(#paint6_linear_134_10506)"/>
<path d="M30.1819 18.089C32.5627 2.07796 11.0981 -5.17347 2.87402 8.09177C10.7748 -6.26592 33.4277 1.99385 30.1819 18.089Z" fill="white"/>
<path d="M30.1819 18.089C32.5627 2.07796 11.0981 -5.17347 2.87402 8.09177C10.7748 -6.26592 33.4277 1.99385 30.1819 18.089Z" fill="white"/>
<path opacity="0.8" d="M28.0548 17.557C30.0552 3.73564 12.008 -2.52417 5.08887 8.92833C11.7359 -3.46411 30.7812 3.66445 28.0548 17.557Z" fill="url(#paint7_linear_134_10506)"/>
<path d="M26.4636 17.1408C28.216 5.36298 12.4284 0.0319535 6.37305 9.78751C12.1895 -0.769905 28.8499 5.3042 26.4636 17.1408Z" fill="white"/>
<path d="M25.5597 26.3572C18.468 32.4376 10.0618 30.8734 4.48735 24.8292C0.782633 20.8039 -0.336817 14.4884 2.55885 8.5625C-5.38523 22.8961 13.6634 37.6708 25.5597 26.3572Z" fill="white"/>
<path opacity="0.8" d="M23.9816 24.8351C13.3441 33.8919 -1.56547 21.9479 4.44529 9.99121C-2.50578 22.223 13.6702 34.5425 23.9816 24.8351Z" fill="url(#paint8_linear_134_10506)"/>
<path opacity="0.8" d="M23.5571 23.0749C15.0673 31.4251 1.46185 21.8038 5.78356 11.1714C0.67307 22.086 15.3921 31.9784 23.5571 23.0749Z" fill="url(#paint9_linear_134_10506)"/>
<g filter="url(#filter0_d_134_10506)">
<mask id="path-15-outside-1_134_10506" maskUnits="userSpaceOnUse" x="11.5352" y="8.85547" width="8" height="12" fill="black">
<rect fill="white" x="11.5352" y="8.85547" width="8" height="12"/>
<path d="M14.2354 14.0244H15.2881C15.6253 14.0244 15.9033 13.9674 16.1221 13.8535C16.3408 13.735 16.5026 13.571 16.6074 13.3613C16.7168 13.1471 16.7715 12.8988 16.7715 12.6162C16.7715 12.361 16.7214 12.1354 16.6211 11.9395C16.5254 11.7389 16.3773 11.584 16.1768 11.4746C15.9762 11.3607 15.7233 11.3037 15.418 11.3037C15.1764 11.3037 14.9531 11.3516 14.748 11.4473C14.543 11.543 14.3789 11.6774 14.2559 11.8506C14.1328 12.0238 14.0713 12.2334 14.0713 12.4795H12.0957C12.0957 11.9326 12.2415 11.4564 12.5332 11.0508C12.8294 10.6452 13.2259 10.3285 13.7227 10.1006C14.2194 9.87272 14.7663 9.75879 15.3633 9.75879C16.0378 9.75879 16.6279 9.86816 17.1338 10.0869C17.6396 10.3011 18.0339 10.6178 18.3164 11.0371C18.599 11.4564 18.7402 11.9759 18.7402 12.5957C18.7402 12.9102 18.6673 13.2155 18.5215 13.5117C18.3757 13.8034 18.166 14.0677 17.8926 14.3047C17.6237 14.5371 17.2956 14.724 16.9082 14.8652C16.5208 15.002 16.0856 15.0703 15.6025 15.0703H14.2354V14.0244ZM14.2354 15.5215V14.5029H15.6025C16.1449 14.5029 16.6211 14.5645 17.0312 14.6875C17.4414 14.8105 17.7855 14.9883 18.0635 15.2207C18.3415 15.4486 18.5511 15.7197 18.6924 16.0342C18.8337 16.3441 18.9043 16.6882 18.9043 17.0664C18.9043 17.5312 18.8154 17.946 18.6377 18.3105C18.46 18.6706 18.2093 18.9759 17.8857 19.2266C17.5667 19.4772 17.193 19.6686 16.7646 19.8008C16.3363 19.9284 15.8691 19.9922 15.3633 19.9922C14.944 19.9922 14.5316 19.9352 14.126 19.8213C13.7249 19.7028 13.3604 19.5273 13.0322 19.2949C12.7087 19.0579 12.4489 18.7617 12.2529 18.4062C12.0615 18.0462 11.9658 17.6201 11.9658 17.1279H13.9414C13.9414 17.3831 14.0052 17.611 14.1328 17.8115C14.2604 18.012 14.4359 18.1693 14.6592 18.2832C14.887 18.3971 15.14 18.4541 15.418 18.4541C15.7324 18.4541 16.0013 18.3971 16.2246 18.2832C16.4525 18.1647 16.6257 18.0007 16.7441 17.791C16.8672 17.5768 16.9287 17.3285 16.9287 17.0459C16.9287 16.6813 16.8626 16.3896 16.7305 16.1709C16.5983 15.9476 16.4092 15.7835 16.1631 15.6787C15.917 15.5739 15.6253 15.5215 15.2881 15.5215H14.2354Z"/>
</mask>
<path d="M14.2354 14.0244H15.2881C15.6253 14.0244 15.9033 13.9674 16.1221 13.8535C16.3408 13.735 16.5026 13.571 16.6074 13.3613C16.7168 13.1471 16.7715 12.8988 16.7715 12.6162C16.7715 12.361 16.7214 12.1354 16.6211 11.9395C16.5254 11.7389 16.3773 11.584 16.1768 11.4746C15.9762 11.3607 15.7233 11.3037 15.418 11.3037C15.1764 11.3037 14.9531 11.3516 14.748 11.4473C14.543 11.543 14.3789 11.6774 14.2559 11.8506C14.1328 12.0238 14.0713 12.2334 14.0713 12.4795H12.0957C12.0957 11.9326 12.2415 11.4564 12.5332 11.0508C12.8294 10.6452 13.2259 10.3285 13.7227 10.1006C14.2194 9.87272 14.7663 9.75879 15.3633 9.75879C16.0378 9.75879 16.6279 9.86816 17.1338 10.0869C17.6396 10.3011 18.0339 10.6178 18.3164 11.0371C18.599 11.4564 18.7402 11.9759 18.7402 12.5957C18.7402 12.9102 18.6673 13.2155 18.5215 13.5117C18.3757 13.8034 18.166 14.0677 17.8926 14.3047C17.6237 14.5371 17.2956 14.724 16.9082 14.8652C16.5208 15.002 16.0856 15.0703 15.6025 15.0703H14.2354V14.0244ZM14.2354 15.5215V14.5029H15.6025C16.1449 14.5029 16.6211 14.5645 17.0312 14.6875C17.4414 14.8105 17.7855 14.9883 18.0635 15.2207C18.3415 15.4486 18.5511 15.7197 18.6924 16.0342C18.8337 16.3441 18.9043 16.6882 18.9043 17.0664C18.9043 17.5312 18.8154 17.946 18.6377 18.3105C18.46 18.6706 18.2093 18.9759 17.8857 19.2266C17.5667 19.4772 17.193 19.6686 16.7646 19.8008C16.3363 19.9284 15.8691 19.9922 15.3633 19.9922C14.944 19.9922 14.5316 19.9352 14.126 19.8213C13.7249 19.7028 13.3604 19.5273 13.0322 19.2949C12.7087 19.0579 12.4489 18.7617 12.2529 18.4062C12.0615 18.0462 11.9658 17.6201 11.9658 17.1279H13.9414C13.9414 17.3831 14.0052 17.611 14.1328 17.8115C14.2604 18.012 14.4359 18.1693 14.6592 18.2832C14.887 18.3971 15.14 18.4541 15.418 18.4541C15.7324 18.4541 16.0013 18.3971 16.2246 18.2832C16.4525 18.1647 16.6257 18.0007 16.7441 17.791C16.8672 17.5768 16.9287 17.3285 16.9287 17.0459C16.9287 16.6813 16.8626 16.3896 16.7305 16.1709C16.5983 15.9476 16.4092 15.7835 16.1631 15.6787C15.917 15.5739 15.6253 15.5215 15.2881 15.5215H14.2354Z" fill="white"/>
<path d="M14.2354 14.0244V13.6244H13.8354V14.0244H14.2354ZM16.1221 13.8535L16.3069 14.2083L16.3126 14.2052L16.1221 13.8535ZM16.6074 13.3613L16.2512 13.1794L16.2497 13.1824L16.6074 13.3613ZM16.6211 11.9395L16.26 12.1118L16.265 12.1216L16.6211 11.9395ZM16.1768 11.4746L15.9791 11.8224L15.9852 11.8258L16.1768 11.4746ZM14.2559 11.8506L13.9298 11.6189L14.2559 11.8506ZM14.0713 12.4795V12.8795H14.4713V12.4795H14.0713ZM12.0957 12.4795H11.6957V12.8795H12.0957V12.4795ZM12.5332 11.0508L12.2102 10.8149L12.2085 10.8173L12.5332 11.0508ZM13.7227 10.1006L13.5559 9.73701L13.7227 10.1006ZM17.1338 10.0869L16.975 10.4541L16.9778 10.4553L17.1338 10.0869ZM18.3164 11.0371L18.6481 10.8136L18.3164 11.0371ZM18.5215 13.5117L18.8793 13.6906L18.8804 13.6884L18.5215 13.5117ZM17.8926 14.3047L18.1542 14.6073L18.1546 14.607L17.8926 14.3047ZM16.9082 14.8652L17.0413 15.2425L17.0453 15.241L16.9082 14.8652ZM14.2354 15.0703H13.8354V15.4703H14.2354V15.0703ZM14.2354 15.5215H13.8354V15.9215H14.2354V15.5215ZM14.2354 14.5029V14.1029H13.8354V14.5029H14.2354ZM18.0635 15.2207L17.8069 15.5276L17.8099 15.5301L18.0635 15.2207ZM18.6924 16.0342L18.3275 16.1981L18.3284 16.2001L18.6924 16.0342ZM18.6377 18.3105L18.9964 18.4876L18.9972 18.4858L18.6377 18.3105ZM17.8857 19.2266L17.6408 18.9103L17.6386 18.912L17.8857 19.2266ZM16.7646 19.8008L16.8788 20.1842L16.8826 20.183L16.7646 19.8008ZM14.126 19.8213L14.0126 20.2049L14.0178 20.2064L14.126 19.8213ZM13.0322 19.2949L12.7958 19.6177L12.801 19.6213L13.0322 19.2949ZM12.2529 18.4062L11.8997 18.594L11.9026 18.5994L12.2529 18.4062ZM11.9658 17.1279V16.7279H11.5658V17.1279H11.9658ZM13.9414 17.1279H14.3414V16.7279H13.9414V17.1279ZM14.6592 18.2832L14.4774 18.6395L14.4803 18.641L14.6592 18.2832ZM16.2246 18.2832L16.4064 18.6395L16.4092 18.6381L16.2246 18.2832ZM16.7441 17.791L16.3973 17.5918L16.3959 17.5942L16.7441 17.791ZM16.7305 16.1709L16.3862 16.3746L16.3881 16.3777L16.7305 16.1709ZM14.2354 14.4244H15.2881V13.6244H14.2354V14.4244ZM15.2881 14.4244C15.6672 14.4244 16.014 14.3608 16.3068 14.2083L15.9373 13.4987C15.7927 13.5741 15.5835 13.6244 15.2881 13.6244V14.4244ZM16.3126 14.2052C16.5988 14.0502 16.8214 13.8279 16.9652 13.5402L16.2497 13.1824C16.1838 13.314 16.0828 13.4199 15.9316 13.5018L16.3126 14.2052ZM16.9637 13.5432C17.1064 13.2637 17.1715 12.951 17.1715 12.6162H16.3715C16.3715 12.8466 16.3272 13.0306 16.2512 13.1794L16.9637 13.5432ZM17.1715 12.6162C17.1715 12.3078 17.1106 12.018 16.9772 11.7573L16.265 12.1216C16.3321 12.2528 16.3715 12.4142 16.3715 12.6162H17.1715ZM16.9821 11.7672C16.8491 11.4884 16.6405 11.2719 16.3683 11.1235L15.9852 11.8258C16.1141 11.896 16.2017 11.9894 16.2601 12.1117L16.9821 11.7672ZM16.3744 11.1268C16.0972 10.9693 15.7709 10.9037 15.418 10.9037V11.7037C15.6757 11.7037 15.8553 11.752 15.9792 11.8224L16.3744 11.1268ZM15.418 10.9037C15.122 10.9037 14.8405 10.9627 14.5789 11.0848L14.9172 11.8097C15.0658 11.7404 15.2309 11.7037 15.418 11.7037V10.9037ZM14.5789 11.0848C14.3153 11.2078 14.0956 11.3856 13.9298 11.6189L14.5819 12.0823C14.6622 11.9692 14.7706 11.8781 14.9172 11.8097L14.5789 11.0848ZM13.9298 11.6189C13.7513 11.8701 13.6713 12.164 13.6713 12.4795H14.4713C14.4713 12.3028 14.5143 12.1775 14.5819 12.0823L13.9298 11.6189ZM14.0713 12.0795H12.0957V12.8795H14.0713V12.0795ZM12.4957 12.4795C12.4957 12.0081 12.6199 11.6154 12.858 11.2843L12.2085 10.8173C11.8632 11.2974 11.6957 11.8572 11.6957 12.4795H12.4957ZM12.8562 11.2867C13.1086 10.9411 13.4492 10.6661 13.8894 10.4642L13.5559 9.73701C13.0026 9.9908 12.5502 10.3493 12.2102 10.8149L12.8562 11.2867ZM13.8894 10.4642C14.3292 10.2624 14.8185 10.1588 15.3633 10.1588V9.35879C14.7141 9.35879 14.1096 9.483 13.5559 9.73701L13.8894 10.4642ZM15.3633 10.1588C15.9951 10.1588 16.5292 10.2613 16.975 10.4541L17.2926 9.71977C16.7267 9.47507 16.0805 9.35879 15.3633 9.35879V10.1588ZM16.9778 10.4553C17.4188 10.642 17.7492 10.9112 17.9847 11.2607L18.6481 10.8136C18.3185 10.3245 17.8605 9.96026 17.2898 9.71857L16.9778 10.4553ZM17.9847 11.2607C18.2136 11.6003 18.3402 12.0374 18.3402 12.5957H19.1402C19.1402 11.9144 18.9843 11.3125 18.6481 10.8136L17.9847 11.2607ZM18.3402 12.5957C18.3402 12.8458 18.2828 13.091 18.1626 13.335L18.8804 13.6884C19.0519 13.34 19.1402 12.9745 19.1402 12.5957H18.3402ZM18.1637 13.3328C18.0438 13.5726 17.8687 13.7961 17.6306 14.0024L18.1546 14.607C18.4634 14.3393 18.7075 14.0342 18.8793 13.6906L18.1637 13.3328ZM17.631 14.0021C17.4042 14.1981 17.1201 14.3622 16.7712 14.4894L17.0453 15.241C17.471 15.0857 17.8432 14.8761 18.1542 14.6073L17.631 14.0021ZM16.7751 14.488C16.4372 14.6073 16.0481 14.6703 15.6025 14.6703V15.4703C16.1232 15.4703 16.6044 15.3966 17.0413 15.2424L16.7751 14.488ZM15.6025 14.6703H14.2354V15.4703H15.6025V14.6703ZM14.6354 15.0703V14.0244H13.8354V15.0703H14.6354ZM14.6354 15.5215V14.5029H13.8354V15.5215H14.6354ZM14.2354 14.9029H15.6025V14.1029H14.2354V14.9029ZM15.6025 14.9029C16.1158 14.9029 16.5518 14.9613 16.9163 15.0706L17.1462 14.3044C16.6904 14.1676 16.1739 14.1029 15.6025 14.1029V14.9029ZM16.9163 15.0706C17.2839 15.1809 17.5773 15.3356 17.8069 15.5276L18.32 14.9138C17.9936 14.6409 17.5989 14.4402 17.1462 14.3044L16.9163 15.0706ZM17.8099 15.5301C18.0422 15.7204 18.2127 15.9425 18.3275 16.1981L19.0573 15.8703C18.8895 15.4969 18.6408 15.1767 18.317 14.9113L17.8099 15.5301ZM18.3284 16.2001C18.4434 16.4524 18.5043 16.739 18.5043 17.0664H19.3043C19.3043 16.6373 19.2239 16.2357 19.0563 15.8683L18.3284 16.2001ZM18.5043 17.0664C18.5043 17.4794 18.4256 17.8327 18.2781 18.1353L18.9972 18.4858C19.2052 18.0592 19.3043 17.5831 19.3043 17.0664H18.5043ZM18.279 18.1335C18.1287 18.438 17.9173 18.6961 17.6408 18.9103L18.1307 19.5428C18.5013 19.2557 18.7912 18.9031 18.9964 18.4876L18.279 18.1335ZM17.6386 18.912C17.362 19.1294 17.0332 19.2993 16.6467 19.4186L16.8826 20.183C17.3529 20.0379 17.7715 19.8251 18.1329 19.5411L17.6386 18.912ZM16.6505 19.4174C16.2636 19.5326 15.8355 19.5922 15.3633 19.5922V20.3922C15.9028 20.3922 16.4089 20.3241 16.8788 20.1841L16.6505 19.4174ZM15.3633 19.5922C14.9808 19.5922 14.6047 19.5403 14.2341 19.4362L14.0178 20.2064C14.4584 20.3302 14.9073 20.3922 15.3633 20.3922V19.5922ZM14.2393 19.4377C13.8787 19.3311 13.5543 19.1745 13.2634 18.9685L12.801 19.6213C13.1664 19.8802 13.5711 20.0745 14.0126 20.2049L14.2393 19.4377ZM13.2686 18.9722C12.9925 18.7701 12.7714 18.5183 12.6032 18.2131L11.9026 18.5994C12.1263 19.0052 12.4248 19.3458 12.7959 19.6176L13.2686 18.9722ZM12.6061 18.2185C12.4512 17.9271 12.3658 17.5681 12.3658 17.1279H11.5658C11.5658 17.6721 11.6718 18.1654 11.8997 18.594L12.6061 18.2185ZM11.9658 17.5279H13.9414V16.7279H11.9658V17.5279ZM13.5414 17.1279C13.5414 17.4534 13.6239 17.7568 13.7953 18.0263L14.4703 17.5968C14.3865 17.4652 14.3414 17.3129 14.3414 17.1279H13.5414ZM13.7953 18.0263C13.9634 18.2904 14.1941 18.495 14.4774 18.6395L14.841 17.9269C14.6776 17.8436 14.5574 17.7337 14.4703 17.5968L13.7953 18.0263ZM14.4803 18.641C14.7686 18.7851 15.0836 18.8541 15.418 18.8541V18.0541C15.1963 18.0541 15.0055 18.0091 14.8381 17.9254L14.4803 18.641ZM15.418 18.8541C15.7799 18.8541 16.1143 18.7885 16.4064 18.6395L16.0428 17.9269C15.8883 18.0057 15.6849 18.0541 15.418 18.0541V18.8541ZM16.4092 18.6381C16.7009 18.4864 16.9332 18.2694 17.0924 17.9878L16.3959 17.5942C16.3181 17.7319 16.204 17.8431 16.0401 17.9283L16.4092 18.6381ZM17.091 17.9903C17.2536 17.7072 17.3287 17.3882 17.3287 17.0459H16.5287C16.5287 17.2687 16.4808 17.4465 16.3973 17.5918L17.091 17.9903ZM17.3287 17.0459C17.3287 16.6379 17.2555 16.2664 17.0728 15.9641L16.3881 16.3777C16.4698 16.5129 16.5287 16.7248 16.5287 17.0459H17.3287ZM17.0747 15.9672C16.8977 15.6681 16.6417 15.4478 16.3198 15.3107L16.0063 16.0467C16.1766 16.1192 16.2989 16.227 16.3862 16.3746L17.0747 15.9672ZM16.3198 15.3107C16.0131 15.18 15.6656 15.1215 15.2881 15.1215V15.9215C15.585 15.9215 15.8209 15.9677 16.0063 16.0467L16.3198 15.3107ZM15.2881 15.1215H14.2354V15.9215H15.2881V15.1215Z" fill="url(#paint10_linear_134_10506)" mask="url(#path-15-outside-1_134_10506)"/>
</g>
<defs>
<filter id="filter0_d_134_10506" x="11.1658" y="9.75879" width="8.53848" height="11.8334" filterUnits="userSpaceOnUse" color-interpolation-filters="sRGB">
<feFlood flood-opacity="0" result="BackgroundImageFix"/>
<feColorMatrix in="SourceAlpha" type="matrix" values="0 0 0 0 0 0 0 0 0 0 0 0 0 0 0 0 0 0 127 0" result="hardAlpha"/>
<feOffset dy="0.8"/>
<feGaussianBlur stdDeviation="0.4"/>
<feComposite in2="hardAlpha" operator="out"/>
<feColorMatrix type="matrix" values="0 0 0 0 0.686275 0 0 0 0 0.333333 0 0 0 0 0.164706 0 0 0 0.6 0"/>
<feBlend mode="normal" in2="BackgroundImageFix" result="effect1_dropShadow_134_10506"/>
<feBlend mode="normal" in="SourceGraphic" in2="effect1_dropShadow_134_10506" result="shape"/>
</filter>
<linearGradient id="paint0_linear_134_10506" x1="5.1416" y1="4.95355" x2="25.016" y2="24.8304" gradientUnits="userSpaceOnUse">
<stop stop-color="#E0BFA4"/>
<stop offset="0.0806" stop-color="white"/>
<stop offset="0.1935" stop-color="#C67B4C"/>
<stop offset="0.2642" stop-color="#C2824E"/>
<stop offset="0.2942" stop-color="#BD794C"/>
<stop offset="0.3617" stop-color="#B46849"/>
<stop offset="0.4003" stop-color="#B26443"/>
<stop offset="0.4708" stop-color="#B1603F"/>
<stop offset="0.5587" stop-color="#BA5A32"/>
<stop offset="0.6761" stop-color="#C2713E"/>
<stop offset="0.7109" stop-color="#C06E3B"/>
<stop offset="0.7393" stop-color="#B96434"/>
<stop offset="0.7653" stop-color="#AE5326"/>
<stop offset="0.7852" stop-color="#A14018"/>
<stop offset="0.8185" stop-color="#A64820"/>
<stop offset="0.8701" stop-color="#B35E34"/>
<stop offset="0.9333" stop-color="#C88156"/>
<stop offset="0.9377" stop-color="#CA8459"/>
</linearGradient>
<linearGradient id="paint1_linear_134_10506" x1="2.54251" y1="2.35666" x2="27.6625" y2="27.4798" gradientUnits="userSpaceOnUse">
<stop offset="0.1483" stop-color="#E0BFA4"/>
<stop offset="0.2053" stop-color="#C67B4C"/>
<stop offset="0.2892" stop-color="#C2824E"/>
<stop offset="0.3115" stop-color="#BD794C"/>
<stop offset="0.3617" stop-color="#B46849"/>
<stop offset="0.4003" stop-color="#B26443"/>
<stop offset="0.4708" stop-color="#B1603F"/>
<stop offset="0.5587" stop-color="#BA5A32"/>
<stop offset="0.6761" stop-color="#C2713E"/>
<stop offset="0.9021" stop-color="#A14018"/>
<stop offset="0.9214" stop-color="#A64820"/>
<stop offset="0.9513" stop-color="#B35E34"/>
<stop offset="0.9879" stop-color="#C88156"/>
<stop offset="0.9905" stop-color="#CA8459"/>
</linearGradient>
<linearGradient id="paint2_linear_134_10506" x1="8.12611" y1="6.83036" x2="24.4623" y2="25.5779" gradientUnits="userSpaceOnUse">
<stop stop-color="#E0BFA4"/>
<stop offset="0.0645" stop-color="white"/>
<stop offset="0.1935" stop-color="#C67B4C"/>
<stop offset="0.2642" stop-color="#C2824E"/>
<stop offset="0.281" stop-color="#BD794C"/>
<stop offset="0.3187" stop-color="#B46849"/>
<stop offset="0.3915" stop-color="#B1603F"/>
<stop offset="0.4015" stop-color="#B86D4D"/>
<stop offset="0.4379" stop-color="#CD997C"/>
<stop offset="0.4658" stop-color="#DBB599"/>
<stop offset="0.4818" stop-color="#E0BFA4"/>
<stop offset="0.5324" stop-color="#EEDCCD"/>
<stop offset="0.5849" stop-color="#FAF5F1"/>
<stop offset="0.6128" stop-color="white"/>
<stop offset="0.6917" stop-color="#CA8459"/>
<stop offset="0.7842" stop-color="#C2713E"/>
<stop offset="0.8647" stop-color="#AD5226"/>
<stop offset="0.9241" stop-color="#A14018"/>
</linearGradient>
<radialGradient id="paint3_radial_134_10506" cx="0" cy="0" r="1" gradientUnits="userSpaceOnUse" gradientTransform="translate(18.0166 8.09076) scale(17.6896 17.6874)">
<stop offset="0.3816" stop-color="#D9A788"/>
<stop offset="0.5772" stop-color="#CA8459"/>
<stop offset="0.7623" stop-color="#C2713E"/>
<stop offset="0.8259" stop-color="#BD6A39"/>
<stop offset="0.9178" stop-color="#B0572A"/>
<stop offset="1" stop-color="#A14018"/>
</radialGradient>
<linearGradient id="paint4_linear_134_10506" x1="10.3677" y1="3.72597" x2="20.606" y2="26.4638" gradientUnits="userSpaceOnUse">
<stop stop-color="#C2824E"/>
<stop offset="0.0435" stop-color="#BD794C"/>
<stop offset="0.1413" stop-color="#B46849"/>
<stop offset="0.1685" stop-color="#B26443"/>
<stop offset="0.2181" stop-color="#B1603F"/>
<stop offset="0.3921" stop-color="#BA5A32"/>
<stop offset="0.6615" stop-color="#A14018"/>
<stop offset="0.8817" stop-color="#A14018"/>
<stop offset="1" stop-color="white"/>
</linearGradient>
<linearGradient id="paint5_linear_134_10506" x1="10.3697" y1="3.73286" x2="20.6069" y2="26.4684" gradientUnits="userSpaceOnUse">
<stop stop-color="#C2824E"/>
<stop offset="0.0435" stop-color="#BD794C"/>
<stop offset="0.1413" stop-color="#B46849"/>
<stop offset="0.1685" stop-color="#B26443"/>
<stop offset="0.2181" stop-color="#B1603F"/>
<stop offset="0.3921" stop-color="#BA5A32"/>
<stop offset="0.6615" stop-color="#A14018"/>
<stop offset="0.8817" stop-color="#A14018"/>
<stop offset="1" stop-color="white"/>
</linearGradient>
<linearGradient id="paint6_linear_134_10506" x1="4.53439" y1="0.449259" x2="25.1612" y2="28.3065" gradientUnits="userSpaceOnUse">
<stop stop-color="#C2824E"/>
<stop offset="0.0435" stop-color="#BD794C"/>
<stop offset="0.1413" stop-color="#B46849"/>
<stop offset="0.1685" stop-color="#B26443"/>
<stop offset="0.2181" stop-color="#B1603F"/>
<stop offset="0.3921" stop-color="#BA5A32"/>
<stop offset="0.6615" stop-color="#A14018"/>
<stop offset="0.8817" stop-color="#A14018"/>
<stop offset="1" stop-color="white"/>
</linearGradient>
<linearGradient id="paint7_linear_134_10506" x1="16.4084" y1="13.6066" x2="21.1511" y2="3.06576" gradientUnits="userSpaceOnUse">
<stop stop-color="white"/>
<stop offset="0.0818" stop-color="#E6C4B6"/>
<stop offset="0.168" stop-color="#CF8B6F"/>
<stop offset="0.2303" stop-color="#C06843"/>
<stop offset="0.2617" stop-color="#BA5A32"/>
<stop offset="0.6615" stop-color="#A14018"/>
<stop offset="0.6926" stop-color="#A44720"/>
<stop offset="0.7409" stop-color="#AD5936"/>
<stop offset="0.8002" stop-color="#BC765A"/>
<stop offset="0.8684" stop-color="#D09F8B"/>
<stop offset="0.943" stop-color="#E9D3CA"/>
<stop offset="1" stop-color="white"/>
</linearGradient>
<linearGradient id="paint8_linear_134_10506" x1="14.4334" y1="17.0823" x2="8.03539" y2="26.7116" gradientUnits="userSpaceOnUse">
<stop stop-color="white"/>
<stop offset="0.0818" stop-color="#E6C4B6"/>
<stop offset="0.168" stop-color="#CF8B6F"/>
<stop offset="0.2303" stop-color="#C06843"/>
<stop offset="0.2617" stop-color="#BA5A32"/>
<stop offset="0.6615" stop-color="#A14018"/>
<stop offset="0.6926" stop-color="#A44720"/>
<stop offset="0.7409" stop-color="#AD5936"/>
<stop offset="0.8002" stop-color="#BC765A"/>
<stop offset="0.8684" stop-color="#D09F8B"/>
<stop offset="0.943" stop-color="#E9D3CA"/>
<stop offset="1" stop-color="white"/>
</linearGradient>
<linearGradient id="paint9_linear_134_10506" x1="14.3387" y1="17.5154" x2="8.51903" y2="24.4033" gradientUnits="userSpaceOnUse">
<stop stop-color="white"/>
<stop offset="0.0818" stop-color="#E6C4B6"/>
<stop offset="0.168" stop-color="#CF8B6F"/>
<stop offset="0.2303" stop-color="#C06843"/>
<stop offset="0.2617" stop-color="#BA5A32"/>
<stop offset="0.6615" stop-color="#A14018"/>
<stop offset="0.6926" stop-color="#A44720"/>
<stop offset="0.7409" stop-color="#AD5936"/>
<stop offset="0.8002" stop-color="#BC765A"/>
<stop offset="0.8684" stop-color="#D09F8B"/>
<stop offset="0.943" stop-color="#E9D3CA"/>
<stop offset="1" stop-color="white"/>
</linearGradient>
<linearGradient id="paint10_linear_134_10506" x1="18.6263" y1="8.11481" x2="14.4456" y2="19.8925" gradientUnits="userSpaceOnUse">
<stop stop-color="#BF7C4C"/>
<stop offset="1" stop-color="#A14118"/>
</linearGradient>
</defs>
</svg>
