<svg width="70" height="35" viewBox="0 0 70 35" fill="none" xmlns="http://www.w3.org/2000/svg">
<rect width="70" height="35" rx="17.5" fill="#D6042D"/>
<circle cx="52" cy="17.5" r="15" fill="white"/>
<path d="M17.8159 10.5729C16.5795 10.5729 15.5797 9.55069 15.5797 8.28643C15.5797 7.02217 16.5795 6 17.8159 6C19.0524 6 20.0521 7.02217 20.0521 8.28643C20.0521 9.55069 19.0524 10.5729 17.8159 10.5729ZM22.2094 13.7201C21.8937 12.2675 20.9203 11.2722 19.4734 11.2722H16.1848C14.7379 11.2722 13.5014 12.402 13.3962 13.9084L13.0015 18.6964C12.9752 19.1537 13.2909 19.5572 13.7645 19.611H13.896C14.3169 19.5572 14.6326 19.2075 14.6589 18.804L15.001 14.3656C15.0273 14.2312 15.0536 13.9622 15.2903 13.9622C15.3693 13.9622 15.5008 13.9891 15.5008 14.3118V28.0304C15.5271 28.5953 16.0007 29.0257 16.5531 28.9988C17.053 28.9719 17.4739 28.5415 17.5002 28.0304V20.2297C17.7107 20.2028 17.9212 20.2028 18.1579 20.2297V28.0035C18.1843 28.5684 18.6578 28.9988 19.2103 28.9719C19.7101 28.945 20.1311 28.5146 20.1574 28.0035V14.2849C20.1574 13.9622 20.2889 13.9353 20.3678 13.9353C20.6046 13.9353 20.6572 14.2849 20.6835 14.3925L21.3413 17.7549C21.4202 18.1584 21.7885 18.4543 22.2094 18.4543C22.6567 18.4274 23.025 18.0239 22.9987 17.5667C22.9987 17.5129 22.9987 17.4591 22.9724 17.4322L22.2094 13.7201Z" fill="#B1092C"/>
<path fill-rule="evenodd" clip-rule="evenodd" d="M52.4834 17.5C53.588 17.5 54.4834 16.6046 54.4834 15.5C54.4834 14.3954 53.588 13.5 52.4834 13.5C51.3788 13.5 50.4834 14.3954 50.4834 15.5C50.4834 16.6046 51.3788 17.5 52.4834 17.5ZM55.0091 18.3114C55.5324 18.5113 55.9859 18.8778 56.265 19.3775C56.9976 20.6102 56.9976 21.4098 56.9976 22.5759C57.0325 23.009 56.6836 23.3754 56.2301 23.4087H56.1952C55.7766 23.4087 55.4277 23.0756 55.3928 22.6758C55.3579 21.4098 55.2184 21.01 55.044 20.5769C54.9742 20.377 54.8346 20.3437 54.7997 20.477V27.9397C54.7997 28.4728 54.3113 28.9392 53.7532 28.9392C53.195 28.9392 52.7066 28.5061 52.7066 27.9397V23.4754H52.0786V27.973C52.0786 28.0397 52.0786 28.1396 52.0437 28.2062C51.9042 28.7393 51.346 29.1058 50.7878 28.9725C50.2994 28.8726 49.9505 28.4394 49.9505 27.9397V19.6774C48.6597 19.3442 47.6131 18.478 47.0898 17.3119C47.0549 17.2453 47.0201 17.1787 47.0201 17.1121C46.9154 16.6123 47.2294 16.1126 47.7527 16.0126C48.2062 15.946 48.6248 16.1459 48.8342 16.5457C49.6714 18.0782 51.4855 18.0782 51.5204 18.0782C52.0786 18.1448 53.3345 18.1448 53.9276 18.1448C54.3113 18.1115 54.6602 18.1782 55.0091 18.3114Z" fill="#FE2C55"/>
</svg>
