<svg width="20" height="20" viewBox="0 0 20 20" fill="none" xmlns="http://www.w3.org/2000/svg">
<path fill-rule="evenodd" clip-rule="evenodd" d="M11.3565 9.99984L19.7191 1.6374C20.0936 1.2628 20.0936 0.655533 19.7191 0.280943C19.3445 -0.0936476 18.7372 -0.0936476 18.3626 0.280943L10 8.64339L1.63742 0.282221C1.26282 -0.0923692 0.655544 -0.0923692 0.280947 0.282221C-0.0936491 0.656812 -0.0936491 1.26408 0.280947 1.63867L8.64353 10.0011L0.282226 18.3623C-0.0923706 18.7369 -0.0923706 19.3441 0.282226 19.7187C0.470163 19.9054 0.714354 20 0.959824 20C1.20529 20 1.45076 19.9067 1.63742 19.7187L10 11.3563L18.3626 19.7187C18.5505 19.9054 18.7947 20 19.0402 20C19.2856 20 19.5311 19.9067 19.7178 19.7187C20.0924 19.3441 20.0924 18.7369 19.7178 18.3623L11.3565 9.99984Z" fill="white"/>
</svg>
