<svg width="31" height="31" viewBox="0 0 31 31" fill="none" xmlns="http://www.w3.org/2000/svg">
<path d="M30.814 15.1561C30.814 23.5265 24.0281 30.3125 15.6564 30.3125C7.28774 30.3125 0.5 23.5265 0.5 15.1561C0.5 6.78039 7.28774 0 15.6564 0C24.0281 0 30.814 6.78064 30.814 15.1561Z" fill="url(#paint0_linear_134_8357)"/>
<path d="M28.5303 15.1562C28.5303 22.2683 22.7656 28.0294 15.6561 28.0294C8.54665 28.0294 2.7832 22.2683 2.7832 15.1562C2.7832 8.04598 8.5464 2.28076 15.6561 2.28076C22.7659 2.28076 28.5303 8.04598 28.5303 15.1562Z" fill="url(#paint1_linear_134_8357)"/>
<path d="M27.0231 15.1563C27.0231 21.4346 21.9338 26.5224 15.6566 26.5224C9.37882 26.5224 4.29004 21.4346 4.29004 15.1563C4.29004 8.87708 9.37882 3.78906 15.6566 3.78906C21.9341 3.78906 27.0231 8.87708 27.0231 15.1563Z" fill="url(#paint2_linear_134_8357)"/>
<path d="M26.5725 15.1563C26.5725 21.1817 21.6842 26.0714 15.6562 26.0714C9.62702 26.0714 4.74219 21.1815 4.74219 15.1563C4.74219 9.12557 9.62702 4.24023 15.6562 4.24023C21.6842 4.24049 26.5725 9.12582 26.5725 15.1563Z" fill="url(#paint3_radial_134_8357)"/>
<path d="M15.6561 2.28076C8.5464 2.28076 2.7832 8.04598 2.7832 15.1562C2.7832 22.2683 8.5464 28.0294 15.6561 28.0294C22.7659 28.0294 28.5303 22.2683 28.5303 15.1562C28.5306 8.04598 22.7659 2.28076 15.6561 2.28076ZM15.6561 27.8019C8.68295 27.8019 3.0102 22.1274 3.0102 15.1562C3.0102 8.18 8.6827 2.50675 15.6561 2.50675C22.6316 2.50675 28.3049 8.18 28.3049 15.1562C28.3049 22.1274 22.6316 27.8019 15.6561 27.8019Z" fill="url(#paint4_linear_134_8357)"/>
<path d="M15.6566 3.78906C9.37882 3.78906 4.29004 8.87708 4.29004 15.1563C4.29004 21.4346 9.37882 26.5224 15.6566 26.5224C21.9338 26.5224 27.0231 21.4346 27.0231 15.1563C27.0231 8.87708 21.9341 3.78906 15.6566 3.78906ZM15.6566 26.2992C9.51284 26.2992 4.51552 21.2991 4.51552 15.1563C4.51552 9.0111 9.51284 4.01404 15.6566 4.01404C21.8018 4.01404 26.7996 9.01135 26.7996 15.1563C26.7999 21.2991 21.8018 26.2992 15.6566 26.2992Z" fill="url(#paint5_linear_134_8357)"/>
<path d="M15.6564 0C7.28774 0 0.5 6.78064 0.5 15.1561C0.5 23.5265 7.28774 30.3125 15.6564 30.3125C24.0281 30.3125 30.814 23.5265 30.814 15.1561C30.814 6.78064 24.0281 0 15.6564 0ZM15.6564 30.0875C7.42531 30.0875 0.725481 23.3872 0.725481 15.1564C0.725481 6.92176 7.42505 0.223708 15.6564 0.223708C23.8918 0.223708 30.5893 6.92176 30.5893 15.1564C30.5896 23.3869 23.8918 30.0875 15.6564 30.0875Z" fill="url(#paint6_linear_134_8357)"/>
<path d="M30.1818 17.7762C32.5605 1.76527 11.101 -5.4861 2.87402 7.77903C10.7768 -6.57828 33.4242 1.68141 30.1818 17.7762Z" fill="white"/>
<path d="M30.1818 17.7762C32.5605 1.76527 11.101 -5.4861 2.87402 7.77903C10.7768 -6.57828 33.4242 1.68141 30.1818 17.7762Z" fill="white"/>
<path opacity="0.8" d="M28.05 17.2444C30.0505 3.42313 12.0097 -2.83689 5.09277 8.61578C11.7358 -3.77656 30.7786 3.35194 28.05 17.2444Z" fill="url(#paint7_linear_134_8357)"/>
<path d="M26.461 16.8281C28.2132 5.05036 12.4249 -0.280622 6.37598 9.47485C12.1901 -1.08222 28.8483 4.99158 26.461 16.8281Z" fill="white"/>
<path d="M25.5607 26.0445C18.4687 32.1249 10.062 30.5607 4.49013 24.5166C0.782868 20.4913 -0.331617 14.1756 2.56087 8.25C-5.3834 22.5838 13.6654 37.3583 25.5607 26.0445Z" fill="white"/>
<path opacity="0.8" d="M23.9786 24.5225C13.3438 33.5792 -1.5618 21.6353 4.4479 9.67871C-2.50173 21.9102 13.6706 34.2298 23.9786 24.5225Z" fill="url(#paint8_linear_134_8357)"/>
<path opacity="0.8" d="M23.5585 22.7623C15.0683 31.1124 1.46214 21.4912 5.78606 10.8589C0.674225 21.7732 15.3923 31.6657 23.5585 22.7623Z" fill="url(#paint9_linear_134_8357)"/>
<g filter="url(#filter0_d_134_8357)">
<mask id="path-15-outside-1_134_8357" maskUnits="userSpaceOnUse" x="11.3535" y="8.75781" width="6" height="12" fill="black">
<rect fill="white" x="11.3535" y="8.75781" width="6" height="12"/>
<path d="M16.8633 9.73439V19.7578H14.8847V12.0152L12.5077 12.771V11.2115L16.6503 9.73439H16.8633Z"/>
</mask>
<path d="M16.8633 9.73439V19.7578H14.8847V12.0152L12.5077 12.771V11.2115L16.6503 9.73439H16.8633Z" fill="white"/>
<path d="M16.8633 9.73439H17.2653V9.33239H16.8633V9.73439ZM16.8633 19.7578V20.1598H17.2653V19.7578H16.8633ZM14.8847 19.7578H14.4827V20.1598H14.8847V19.7578ZM14.8847 12.0152H15.2867V11.4656L14.7629 11.6321L14.8847 12.0152ZM12.5077 12.771H12.1057V13.3206L12.6295 13.1541L12.5077 12.771ZM12.5077 11.2115L12.3727 10.8328L12.1057 10.928V11.2115H12.5077ZM16.6503 9.73439V9.33239H16.5808L16.5153 9.35574L16.6503 9.73439ZM16.4613 9.73439V19.7578H17.2653V9.73439H16.4613ZM16.8633 19.3558H14.8847V20.1598H16.8633V19.3558ZM15.2867 19.7578V12.0152H14.4827V19.7578H15.2867ZM14.7629 11.6321L12.3859 12.3879L12.6295 13.1541L15.0065 12.3984L14.7629 11.6321ZM12.9097 12.771V11.2115H12.1057V12.771H12.9097ZM12.6427 11.5901L16.7853 10.113L16.5153 9.35574L12.3727 10.8328L12.6427 11.5901ZM16.6503 10.1364H16.8633V9.33239H16.6503V10.1364Z" fill="url(#paint10_linear_134_8357)" mask="url(#path-15-outside-1_134_8357)"/>
</g>
<defs>
<filter id="filter0_d_134_8357" x="11.7038" y="9.73438" width="5.96346" height="11.6314" filterUnits="userSpaceOnUse" color-interpolation-filters="sRGB">
<feFlood flood-opacity="0" result="BackgroundImageFix"/>
<feColorMatrix in="SourceAlpha" type="matrix" values="0 0 0 0 0 0 0 0 0 0 0 0 0 0 0 0 0 0 127 0" result="hardAlpha"/>
<feOffset dy="0.803994"/>
<feGaussianBlur stdDeviation="0.401997"/>
<feComposite in2="hardAlpha" operator="out"/>
<feColorMatrix type="matrix" values="0 0 0 0 0.290196 0 0 0 0 0.0980392 0 0 0 0 0 0 0 0 0.7 0"/>
<feBlend mode="normal" in2="BackgroundImageFix" result="effect1_dropShadow_134_8357"/>
<feBlend mode="normal" in="SourceGraphic" in2="effect1_dropShadow_134_8357" result="shape"/>
</filter>
<linearGradient id="paint0_linear_134_8357" x1="5.14291" y1="4.64088" x2="25.0174" y2="24.5154" gradientUnits="userSpaceOnUse">
<stop stop-color="#FFD876"/>
<stop offset="0.0806" stop-color="white"/>
<stop offset="0.1935" stop-color="#F1D78C"/>
<stop offset="0.2642" stop-color="#D9B257"/>
<stop offset="0.3185" stop-color="#C59743"/>
<stop offset="0.3617" stop-color="#B98636"/>
<stop offset="0.378" stop-color="#B88435"/>
<stop offset="0.4708" stop-color="#B58032"/>
<stop offset="0.5147" stop-color="#BE8D3E"/>
<stop offset="0.5587" stop-color="#CB9F4D"/>
<stop offset="0.6761" stop-color="#F0D57C"/>
<stop offset="0.7008" stop-color="#EED279"/>
<stop offset="0.7209" stop-color="#E6C871"/>
<stop offset="0.7394" stop-color="#D9B763"/>
<stop offset="0.757" stop-color="#C69E50"/>
<stop offset="0.7737" stop-color="#AF8037"/>
<stop offset="0.7852" stop-color="#9B6622"/>
<stop offset="0.8077" stop-color="#A16E28"/>
<stop offset="0.8427" stop-color="#B2843A"/>
<stop offset="0.8856" stop-color="#CDA757"/>
<stop offset="0.9346" stop-color="#F2D97F"/>
<stop offset="0.9377" stop-color="#F5DC82"/>
</linearGradient>
<linearGradient id="paint1_linear_134_8357" x1="2.54422" y1="2.04403" x2="27.6644" y2="27.1643" gradientUnits="userSpaceOnUse">
<stop offset="0.1483" stop-color="#FFD876"/>
<stop offset="0.2053" stop-color="#F1D78C"/>
<stop offset="0.2892" stop-color="#D9B257"/>
<stop offset="0.3296" stop-color="#C59743"/>
<stop offset="0.3617" stop-color="#B98636"/>
<stop offset="0.378" stop-color="#B88435"/>
<stop offset="0.4708" stop-color="#B58032"/>
<stop offset="0.5147" stop-color="#BE8D3E"/>
<stop offset="0.5587" stop-color="#CB9F4D"/>
<stop offset="0.6761" stop-color="#F0D57C"/>
<stop offset="0.9021" stop-color="#9B6622"/>
<stop offset="0.9152" stop-color="#A16E28"/>
<stop offset="0.9354" stop-color="#B2843A"/>
<stop offset="0.9603" stop-color="#CDA757"/>
<stop offset="0.9887" stop-color="#F2D97F"/>
<stop offset="0.9905" stop-color="#F5DC82"/>
</linearGradient>
<linearGradient id="paint2_linear_134_8357" x1="8.12887" y1="6.51835" x2="24.4643" y2="25.2627" gradientUnits="userSpaceOnUse">
<stop stop-color="#FFD876"/>
<stop offset="0.0645" stop-color="white"/>
<stop offset="0.1935" stop-color="#F1D78C"/>
<stop offset="0.2642" stop-color="#D9B257"/>
<stop offset="0.2946" stop-color="#C59743"/>
<stop offset="0.3187" stop-color="#B98636"/>
<stop offset="0.3915" stop-color="#B58032"/>
<stop offset="0.3924" stop-color="#B68133"/>
<stop offset="0.4329" stop-color="#DDB057"/>
<stop offset="0.464" stop-color="#F6CD6E"/>
<stop offset="0.4818" stop-color="#FFD876"/>
<stop offset="0.5042" stop-color="#FFE092"/>
<stop offset="0.5551" stop-color="#FFF1CD"/>
<stop offset="0.5928" stop-color="#FFFBF1"/>
<stop offset="0.6128" stop-color="white"/>
<stop offset="0.6917" stop-color="#F5DC82"/>
<stop offset="0.7842" stop-color="#F0D57C"/>
<stop offset="0.8359" stop-color="#CDA757"/>
<stop offset="0.8947" stop-color="#A97831"/>
<stop offset="0.9241" stop-color="#9B6622"/>
</linearGradient>
<radialGradient id="paint3_radial_134_8357" cx="0" cy="0" r="1" gradientUnits="userSpaceOnUse" gradientTransform="translate(18.0162 7.77849) scale(17.6868)">
<stop offset="0.3816" stop-color="#F7E6A8"/>
<stop offset="0.5772" stop-color="#F5DC82"/>
<stop offset="0.7623" stop-color="#F0D57C"/>
<stop offset="0.7991" stop-color="#EBCE76"/>
<stop offset="0.8522" stop-color="#DCBB67"/>
<stop offset="0.9154" stop-color="#C49B4D"/>
<stop offset="0.9857" stop-color="#A2702A"/>
<stop offset="1" stop-color="#9B6622"/>
</radialGradient>
<linearGradient id="paint4_linear_134_8357" x1="10.3686" y1="3.41382" x2="20.6078" y2="26.1508" gradientUnits="userSpaceOnUse">
<stop stop-color="#D9B257"/>
<stop offset="0.0787" stop-color="#C59743"/>
<stop offset="0.1413" stop-color="#B98636"/>
<stop offset="0.1528" stop-color="#B88435"/>
<stop offset="0.2181" stop-color="#B58032"/>
<stop offset="0.305" stop-color="#BE8D3E"/>
<stop offset="0.3921" stop-color="#CB9F4D"/>
<stop offset="0.6615" stop-color="#9B6622"/>
<stop offset="0.8817" stop-color="#9B6622"/>
<stop offset="1" stop-color="#4A1900"/>
</linearGradient>
<linearGradient id="paint5_linear_134_8357" x1="10.3719" y1="3.42074" x2="20.6098" y2="26.1549" gradientUnits="userSpaceOnUse">
<stop stop-color="#D9B257"/>
<stop offset="0.0787" stop-color="#C59743"/>
<stop offset="0.1413" stop-color="#B98636"/>
<stop offset="0.1528" stop-color="#B88435"/>
<stop offset="0.2181" stop-color="#B58032"/>
<stop offset="0.305" stop-color="#BE8D3E"/>
<stop offset="0.3921" stop-color="#CB9F4D"/>
<stop offset="0.6615" stop-color="#9B6622"/>
<stop offset="0.8817" stop-color="#9B6622"/>
<stop offset="1" stop-color="#4A1900"/>
</linearGradient>
<linearGradient id="paint6_linear_134_8357" x1="4.53601" y1="0.137366" x2="25.1633" y2="27.9917" gradientUnits="userSpaceOnUse">
<stop stop-color="#D9B257"/>
<stop offset="0.0787" stop-color="#C59743"/>
<stop offset="0.1413" stop-color="#B98636"/>
<stop offset="0.1528" stop-color="#B88435"/>
<stop offset="0.2181" stop-color="#B58032"/>
<stop offset="0.305" stop-color="#BE8D3E"/>
<stop offset="0.3921" stop-color="#CB9F4D"/>
<stop offset="0.6615" stop-color="#9B6622"/>
<stop offset="0.8817" stop-color="#9B6622"/>
<stop offset="1" stop-color="#4A1900"/>
</linearGradient>
<linearGradient id="paint7_linear_134_8357" x1="16.4081" y1="13.2926" x2="21.1507" y2="2.7535" gradientUnits="userSpaceOnUse">
<stop stop-color="white"/>
<stop offset="0.0589" stop-color="#F2E6D1"/>
<stop offset="0.1562" stop-color="#DDC08A"/>
<stop offset="0.2263" stop-color="#D0A85E"/>
<stop offset="0.2617" stop-color="#CB9F4D"/>
<stop offset="0.6615" stop-color="#9B6622"/>
<stop offset="0.7268" stop-color="#935E1F"/>
<stop offset="0.828" stop-color="#7D4A15"/>
<stop offset="0.9518" stop-color="#5A2807"/>
<stop offset="1" stop-color="#4A1900"/>
</linearGradient>
<linearGradient id="paint8_linear_134_8357" x1="14.4337" y1="16.7689" x2="8.03516" y2="26.3976" gradientUnits="userSpaceOnUse">
<stop stop-color="white"/>
<stop offset="0.0589" stop-color="#F2E6D1"/>
<stop offset="0.1562" stop-color="#DDC08A"/>
<stop offset="0.2263" stop-color="#D0A85E"/>
<stop offset="0.2617" stop-color="#CB9F4D"/>
<stop offset="0.6615" stop-color="#9B6622"/>
<stop offset="0.7268" stop-color="#935E1F"/>
<stop offset="0.828" stop-color="#7D4A15"/>
<stop offset="0.9518" stop-color="#5A2807"/>
<stop offset="1" stop-color="#4A1900"/>
</linearGradient>
<linearGradient id="paint9_linear_134_8357" x1="14.3407" y1="17.2026" x2="8.52011" y2="24.0906" gradientUnits="userSpaceOnUse">
<stop stop-color="white"/>
<stop offset="0.0589" stop-color="#F2E6D1"/>
<stop offset="0.1562" stop-color="#DDC08A"/>
<stop offset="0.2263" stop-color="#D0A85E"/>
<stop offset="0.2617" stop-color="#CB9F4D"/>
<stop offset="0.6615" stop-color="#9B6622"/>
<stop offset="0.7268" stop-color="#935E1F"/>
<stop offset="0.828" stop-color="#7D4A15"/>
<stop offset="0.9518" stop-color="#5A2807"/>
<stop offset="1" stop-color="#4A1900"/>
</linearGradient>
<linearGradient id="paint10_linear_134_8357" x1="18.4446" y1="8.01715" x2="14.2639" y2="19.7948" gradientUnits="userSpaceOnUse">
<stop stop-color="#B58133"/>
<stop offset="1" stop-color="#E4A95D"/>
</linearGradient>
</defs>
</svg>
