<svg width="264" height="36" viewBox="0 0 264 36" fill="none" xmlns="http://www.w3.org/2000/svg">
<path d="M46.5842 17.5423L51.3841 8.23676C51.5699 7.87548 51.6008 7.50388 51.477 7.12196C51.3634 6.74003 51.126 6.45101 50.7647 6.25489C50.4138 6.06909 50.0473 6.03812 49.6654 6.16199C49.2835 6.28586 48.9996 6.52843 48.8138 6.88971L44.943 14.3837L41.0876 6.88971C40.9018 6.52843 40.618 6.28586 40.236 6.16199C39.8541 6.03812 39.4877 6.06909 39.1367 6.25489C38.7754 6.45101 38.538 6.74003 38.4245 7.12196C38.3006 7.50388 38.3316 7.87548 38.5174 8.23676L43.3172 17.5423L38.5174 26.8478C38.3316 27.2091 38.3006 27.5807 38.4245 27.9626C38.538 28.3549 38.7754 28.6439 39.1367 28.8297C39.4877 29.0155 39.8541 29.0465 40.236 28.9226C40.618 28.809 40.9018 28.5716 41.0876 28.2103L44.943 20.7164L48.8138 28.2103C48.9996 28.5716 49.2835 28.809 49.6654 28.9226C50.0473 29.0465 50.4138 29.0155 50.7647 28.8297C51.126 28.6439 51.3634 28.3549 51.477 27.9626C51.6008 27.5807 51.5699 27.2091 51.3841 26.8478L46.5842 17.5423ZM60.0857 9.08835C59.0638 9.08835 58.1968 9.44447 57.4845 10.1567C56.762 10.8793 56.4007 11.7463 56.4007 12.7579V22.4196C56.4007 23.4311 56.762 24.2982 57.4845 25.0208C58.1968 25.7433 59.0638 26.1046 60.0857 26.1046C61.0973 26.1046 61.9644 25.7433 62.687 25.0208C63.4095 24.2982 63.7708 23.4311 63.7708 22.4196V12.7579C63.7708 11.7463 63.4095 10.8793 62.687 10.1567C61.9644 9.44447 61.0973 9.08835 60.0857 9.08835ZM60.0857 29C58.269 29 56.7207 28.3549 55.4407 27.0646C54.1504 25.7846 53.5053 24.2363 53.5053 22.4196V12.7579C53.5053 10.9515 54.1504 9.40318 55.4407 8.1129C56.7207 6.83294 58.269 6.19295 60.0857 6.19295C61.9025 6.19295 63.4508 6.83294 64.7308 8.1129C66.021 9.40318 66.6662 10.9515 66.6662 12.7579V22.4196C66.6662 24.2363 66.021 25.7846 64.7308 27.0646C63.4508 28.3549 61.9025 29 60.0857 29ZM80.0284 6.17747C79.6258 6.17747 79.2852 6.32198 79.0065 6.61101C78.7278 6.88971 78.5884 7.23034 78.5884 7.63291V14.3217C78.5884 15.3024 78.2374 16.1385 77.5355 16.83C76.8439 17.5216 76.013 17.8674 75.0427 17.8674H74.9343C73.9537 17.8674 73.1176 17.5216 72.426 16.83C71.7344 16.1385 71.3886 15.3024 71.3886 14.3217V7.63291C71.3886 7.23034 71.2493 6.88971 70.9706 6.61101C70.6816 6.32198 70.3409 6.17747 69.9487 6.17747C69.5461 6.17747 69.2003 6.32198 68.9113 6.61101C68.6326 6.88971 68.4932 7.23034 68.4932 7.63291V14.3217C68.4932 16.0972 69.1229 17.6145 70.3822 18.8739C71.6415 20.1332 73.1589 20.7628 74.9343 20.7628H75.0427C76.3227 20.7628 77.5046 20.4067 78.5884 19.6945V27.5446C78.5884 27.9471 78.7278 28.2929 79.0065 28.5819C79.2852 28.8606 79.6258 29 80.0284 29C80.4309 29 80.7716 28.8606 81.0503 28.5819C81.3393 28.2929 81.4838 27.9471 81.4838 27.5446V7.63291C81.4838 7.23034 81.3393 6.88971 81.0503 6.61101C80.7716 6.32198 80.4309 6.17747 80.0284 6.17747ZM97.0756 8.23676C97.2614 7.87548 97.2924 7.50388 97.1685 7.12196C97.0549 6.72971 96.8175 6.44069 96.4562 6.25489C96.1053 6.06909 95.7389 6.03812 95.3569 6.16199C94.975 6.28586 94.6911 6.52327 94.5053 6.87422L90.6345 14.3837L86.7791 6.87422C86.5933 6.52327 86.3095 6.28586 85.9275 6.16199C85.5456 6.03812 85.1792 6.06909 84.8282 6.25489C84.4669 6.44069 84.2295 6.72971 84.116 7.12196C83.9921 7.50388 84.0231 7.87548 84.2089 8.23676L89.0087 17.5423L84.2089 26.8478C84.0231 27.2091 83.9921 27.5807 84.116 27.9626C84.2295 28.3549 84.4669 28.6439 84.8282 28.8297C85.1792 29.0155 85.5456 29.0465 85.9275 28.9226C86.3095 28.809 86.5933 28.5716 86.7791 28.2103L97.0756 8.23676ZM116.925 23.1318C116.234 23.1318 115.78 23.4518 115.563 24.0918C115.367 24.6801 115.011 25.1601 114.494 25.5317C113.978 25.9136 113.4 26.1046 112.76 26.1046H112.667C111.842 26.1046 111.14 25.8156 110.562 25.2375C109.984 24.6595 109.695 23.9576 109.695 23.1318V12.0457C109.695 11.2302 109.984 10.5335 110.562 9.95542C111.14 9.37737 111.842 9.08835 112.667 9.08835H112.76C113.4 9.08835 113.978 9.27415 114.494 9.64575C115.011 10.0174 115.367 10.5025 115.563 11.1012C115.78 11.7309 116.234 12.0457 116.925 12.0457C117.41 12.0457 117.803 11.8496 118.102 11.4573C118.391 11.0547 118.458 10.6264 118.303 10.1722C117.911 8.99545 117.209 8.04064 116.198 7.30776C115.176 6.56456 114.03 6.19295 112.76 6.19295H112.667C111.047 6.19295 109.664 6.76584 108.518 7.91161C107.372 9.05738 106.799 10.4354 106.799 12.0457V23.1318C106.799 24.7524 107.372 26.1356 108.518 27.2813C109.664 28.4271 111.047 29 112.667 29H112.76C114.03 29 115.176 28.6232 116.198 27.8697C117.209 27.1368 117.911 26.1872 118.303 25.0208C118.458 24.5563 118.391 24.1279 118.102 23.7356C117.803 23.3331 117.41 23.1318 116.925 23.1318ZM126.99 6.44069C125.214 6.44069 123.697 7.07035 122.437 8.32966C121.178 9.58898 120.548 11.1064 120.548 12.8818V27.5446C120.548 27.9471 120.688 28.2929 120.966 28.5819C121.255 28.8606 121.601 29 122.004 29C122.396 29 122.737 28.8606 123.026 28.5819C123.304 28.2929 123.444 27.9471 123.444 27.5446V12.8818C123.444 11.9012 123.79 11.0651 124.481 10.3735C125.173 9.68188 126.009 9.33608 126.99 9.33608H130.736V27.4981C130.736 27.9007 130.881 28.2413 131.17 28.52C131.449 28.809 131.789 28.9535 132.192 28.9535C132.595 28.9535 132.935 28.809 133.214 28.52C133.503 28.2413 133.647 27.9007 133.647 27.4981V7.88065C133.647 7.4884 133.503 7.14776 133.214 6.85874C132.935 6.58004 132.595 6.44069 132.192 6.44069H126.99ZM139.485 15.3591V12.0457C139.485 11.6534 139.562 11.2767 139.717 10.9154C139.727 10.8844 139.732 10.8741 139.732 10.8844C139.836 10.6264 139.975 10.389 140.15 10.1722C140.161 10.1722 140.171 10.167 140.181 10.1567C140.181 10.1464 140.187 10.1361 140.197 10.1257C140.29 10.0225 140.393 9.91929 140.507 9.81607C140.558 9.76446 140.589 9.73865 140.599 9.73865C140.661 9.68704 140.723 9.64059 140.785 9.5993C140.837 9.55801 140.904 9.51672 140.986 9.47544C141.038 9.44447 141.11 9.40834 141.203 9.36705C141.265 9.33608 141.332 9.30512 141.405 9.27415L141.559 9.2277C141.673 9.18641 141.792 9.15544 141.916 9.1348C141.936 9.1348 141.977 9.12964 142.039 9.11932C142.184 9.09867 142.313 9.08835 142.426 9.08835H142.566C142.679 9.08835 142.808 9.09867 142.953 9.11932C143.015 9.12964 143.056 9.1348 143.077 9.1348C143.201 9.15544 143.319 9.18641 143.433 9.2277C143.443 9.2277 143.49 9.24318 143.572 9.27415C143.644 9.30512 143.717 9.33608 143.789 9.36705C143.872 9.40834 143.944 9.44447 144.006 9.47544C144.078 9.51672 144.145 9.55801 144.207 9.5993C144.269 9.64059 144.331 9.68704 144.393 9.73865C144.413 9.7593 144.444 9.7851 144.486 9.81607C144.599 9.91929 144.703 10.0225 144.795 10.1257C144.826 10.167 144.837 10.1825 144.826 10.1722C145.002 10.389 145.146 10.6264 145.26 10.8844L145.275 10.9154C145.43 11.2767 145.508 11.6534 145.508 12.0457V15.3591H139.485ZM148.109 10.2186C148.109 10.198 148.104 10.1825 148.093 10.1722C147.453 8.28321 146.184 7.04454 144.284 6.45617C144.274 6.45617 144.264 6.45101 144.253 6.44069C144.099 6.3994 143.939 6.35811 143.774 6.31682H143.712C143.691 6.3065 143.675 6.30134 143.665 6.30134C143.521 6.27037 143.371 6.24457 143.216 6.22392L143.092 6.20844C142.896 6.19812 142.715 6.19295 142.55 6.19295H142.442C142.277 6.19295 142.091 6.19812 141.885 6.20844L141.776 6.22392C141.621 6.24457 141.472 6.27037 141.327 6.30134C141.317 6.30134 141.296 6.3065 141.265 6.31682H141.219C141.054 6.35811 140.894 6.3994 140.739 6.44069C140.718 6.45101 140.703 6.45617 140.692 6.45617C138.793 7.04454 137.523 8.28321 136.883 10.1722C136.904 10.1206 136.899 10.1464 136.868 10.2496C136.682 10.838 136.589 11.4367 136.589 12.0457V27.5446C136.589 27.9471 136.729 28.2929 137.007 28.5819C137.296 28.8606 137.642 29 138.045 29C138.437 29 138.778 28.8606 139.067 28.5819C139.345 28.2929 139.485 27.9471 139.485 27.5446V18.2545H145.508V27.5446C145.508 27.9471 145.647 28.2929 145.926 28.5819C146.204 28.8606 146.545 29 146.948 29C147.35 29 147.691 28.8606 147.97 28.5819C148.259 28.2929 148.403 27.9471 148.403 27.5446V12.0457C148.403 11.4367 148.305 10.838 148.109 10.2496V10.2186ZM161.084 22.3731C161.084 23.3744 160.738 24.2311 160.047 24.9433C159.345 25.6556 158.509 26.0117 157.538 26.0117H154.256V18.6106H157.538C158.509 18.6106 159.345 18.9668 160.047 19.679C160.738 20.3912 161.084 21.248 161.084 22.2492V22.3731ZM160.527 12.5721C160.527 13.4082 160.238 14.1256 159.659 14.7243C159.071 15.323 158.369 15.6223 157.554 15.6223H154.256V9.4135H157.554C158.369 9.4135 159.066 9.71285 159.644 10.3115C160.232 10.9102 160.527 11.6328 160.527 12.4792V12.5721ZM163.422 12.5721V12.4792C163.422 10.807 162.849 9.38253 161.703 8.2058C160.558 7.02906 159.174 6.44069 157.554 6.44069H152.816C152.413 6.44069 152.067 6.5852 151.778 6.87422C151.5 7.16325 151.36 7.5142 151.36 7.9271V27.5136C151.36 27.9265 151.5 28.2774 151.778 28.5665C152.067 28.8555 152.413 29 152.816 29H157.569C159.345 28.9897 160.857 28.3342 162.106 27.0336C163.355 25.7433 163.979 24.1898 163.979 22.3731V22.2492C163.979 20.1022 163.148 18.3629 161.487 17.0313C162.777 15.834 163.422 14.3475 163.422 12.5721ZM180.345 6.17747C179.943 6.17747 179.597 6.32198 179.308 6.61101C179.029 6.88971 178.89 7.23034 178.89 7.63291V27.5446C178.89 27.9471 179.029 28.2929 179.308 28.5819C179.597 28.8606 179.943 29 180.345 29C180.738 29 181.078 28.8606 181.367 28.5819C181.646 28.2929 181.785 27.9471 181.785 27.5446V7.63291C181.785 7.23034 181.646 6.88971 181.367 6.61101C181.078 6.32198 180.738 6.17747 180.345 6.17747ZM174.647 22.2802C174.647 23.2608 174.296 24.0969 173.595 24.7885C172.903 25.4801 172.072 25.8259 171.102 25.8259H169.832V18.6261H171.102C172.072 18.6261 172.903 18.9719 173.595 19.6635C174.296 20.3551 174.647 21.1912 174.647 22.1718V22.2802ZM169.832 15.7307V7.63291C169.832 7.23034 169.693 6.88971 169.414 6.61101C169.125 6.32198 168.784 6.17747 168.392 6.17747C167.99 6.17747 167.644 6.32198 167.355 6.61101C167.076 6.88971 166.937 7.23034 166.937 7.63291V27.2659C166.937 27.6684 167.076 28.0091 167.355 28.2878C167.644 28.5768 167.99 28.7213 168.392 28.7213H171.133C172.908 28.711 174.42 28.0762 175.669 26.8168C176.918 25.5575 177.543 24.0453 177.543 22.2802V22.1718C177.543 20.4067 176.918 18.8945 175.669 17.6352C174.42 16.3862 172.913 15.7514 171.148 15.7307H169.832Z" fill="white"/>
<path d="M16.5 22.6875C13.0881 22.6875 10.3125 19.9119 10.3125 16.5V8.25C10.3125 4.83811 13.0881 2.0625 16.5 2.0625C19.9119 2.0625 22.6875 4.83811 22.6875 8.25V16.5C22.6875 19.9119 19.9119 22.6875 16.5 22.6875ZM16.5 4.125C14.2256 4.125 12.375 5.97558 12.375 8.25V16.5C12.375 18.7744 14.2256 20.625 16.5 20.625C18.7744 20.625 20.625 18.7744 20.625 16.5V8.25C20.625 5.97558 18.7744 4.125 16.5 4.125ZM25.7812 14.4375C25.5077 14.4375 25.2454 14.5461 25.052 14.7395C24.8586 14.9329 24.75 15.1952 24.75 15.4688V16.5C24.75 21.0491 21.0491 24.75 16.5 24.75C11.9509 24.75 8.25 21.0491 8.25 16.5V15.4688C8.25 15.1952 8.14135 14.9329 7.94795 14.7395C7.75456 14.5461 7.49225 14.4375 7.21875 14.4375C6.94525 14.4375 6.68294 14.5461 6.48955 14.7395C6.29615 14.9329 6.1875 15.1952 6.1875 15.4688V16.5C6.1875 21.8385 10.2648 26.2412 15.4688 26.7602V28.875H13.4062C13.1327 28.875 12.8704 28.9836 12.677 29.177C12.4836 29.3704 12.375 29.6327 12.375 29.9062C12.375 30.1798 12.4836 30.4421 12.677 30.6355C12.8704 30.8289 13.1327 30.9375 13.4062 30.9375H19.5938C19.8673 30.9375 20.1296 30.8289 20.323 30.6355C20.5164 30.4421 20.625 30.1798 20.625 29.9062C20.625 29.6327 20.5164 29.3704 20.323 29.177C20.1296 28.9836 19.8673 28.875 19.5938 28.875H17.5312V26.7602C22.7352 26.2409 26.8125 21.8383 26.8125 16.5V15.4688C26.8125 15.1952 26.7039 14.9329 26.5105 14.7395C26.3171 14.5461 26.0548 14.4375 25.7812 14.4375Z" fill="#FE2C55"/>
</svg>
