<svg width="33" height="16" viewBox="0 0 33 16" fill="none" xmlns="http://www.w3.org/2000/svg">
<rect y="0.5" width="33" height="15" rx="4" fill="#54A93F"/>
<path d="M8.63672 8.6543H6.35742V7.73438H8.63672C9.07812 7.73438 9.43555 7.66406 9.70898 7.52344C9.98242 7.38281 10.1816 7.1875 10.3066 6.9375C10.4355 6.6875 10.5 6.40234 10.5 6.08203C10.5 5.78906 10.4355 5.51367 10.3066 5.25586C10.1816 4.99805 9.98242 4.79102 9.70898 4.63477C9.43555 4.47461 9.07812 4.39453 8.63672 4.39453H6.62109V12H5.49023V3.46875H8.63672C9.28125 3.46875 9.82617 3.58008 10.2715 3.80273C10.7168 4.02539 11.0547 4.33398 11.2852 4.72852C11.5156 5.11914 11.6309 5.56641 11.6309 6.07031C11.6309 6.61719 11.5156 7.08398 11.2852 7.4707C11.0547 7.85742 10.7168 8.15234 10.2715 8.35547C9.82617 8.55469 9.28125 8.6543 8.63672 8.6543ZM19.6289 7.46484V8.00391C19.6289 8.64453 19.5488 9.21875 19.3887 9.72656C19.2285 10.2344 18.998 10.666 18.6973 11.0215C18.3965 11.377 18.0352 11.6484 17.6133 11.8359C17.1953 12.0234 16.7266 12.1172 16.207 12.1172C15.7031 12.1172 15.2402 12.0234 14.8184 11.8359C14.4004 11.6484 14.0371 11.377 13.7285 11.0215C13.4238 10.666 13.1875 10.2344 13.0195 9.72656C12.8516 9.21875 12.7676 8.64453 12.7676 8.00391V7.46484C12.7676 6.82422 12.8496 6.25195 13.0137 5.74805C13.1816 5.24023 13.418 4.80859 13.7227 4.45312C14.0273 4.09375 14.3887 3.82031 14.8066 3.63281C15.2285 3.44531 15.6914 3.35156 16.1953 3.35156C16.7148 3.35156 17.1836 3.44531 17.6016 3.63281C18.0234 3.82031 18.3848 4.09375 18.6855 4.45312C18.9902 4.80859 19.2227 5.24023 19.3828 5.74805C19.5469 6.25195 19.6289 6.82422 19.6289 7.46484ZM18.5098 8.00391V7.45312C18.5098 6.94531 18.457 6.49609 18.3516 6.10547C18.25 5.71484 18.0996 5.38672 17.9004 5.12109C17.7012 4.85547 17.457 4.6543 17.168 4.51758C16.8828 4.38086 16.5586 4.3125 16.1953 4.3125C15.8438 4.3125 15.5254 4.38086 15.2402 4.51758C14.959 4.6543 14.7168 4.85547 14.5137 5.12109C14.3145 5.38672 14.1602 5.71484 14.0508 6.10547C13.9414 6.49609 13.8867 6.94531 13.8867 7.45312V8.00391C13.8867 8.51562 13.9414 8.96875 14.0508 9.36328C14.1602 9.75391 14.3164 10.084 14.5195 10.3535C14.7266 10.6191 14.9707 10.8203 15.252 10.957C15.5371 11.0938 15.8555 11.1621 16.207 11.1621C16.5742 11.1621 16.9004 11.0938 17.1855 10.957C17.4707 10.8203 17.7109 10.6191 17.9062 10.3535C18.1055 10.084 18.2559 9.75391 18.3574 9.36328C18.459 8.96875 18.5098 8.51562 18.5098 8.00391ZM22.5059 3.46875V12H21.375V3.46875H22.5059ZM27.7617 3.46875L24.0586 8.16211H22.0547L21.8789 7.22461H23.3848L26.3613 3.46875H27.7617ZM26.625 12L23.4199 8.01562L24.0527 7.02539L28.0078 12H26.625Z" fill="white"/>
</svg>
