<svg width="20" height="19" viewBox="0 0 20 19" fill="none" xmlns="http://www.w3.org/2000/svg">
<path d="M8.57324 16.146C10.3482 16.1456 12.072 15.5514 13.4702 14.458L17.8662 18.854L19.2802 17.44L14.8842 13.044C15.9782 11.6457 16.5728 9.92143 16.5732 8.146C16.5732 3.735 12.9842 0.145996 8.57324 0.145996C4.16224 0.145996 0.573242 3.735 0.573242 8.146C0.573242 12.557 4.16224 16.146 8.57324 16.146ZM8.57324 2.146C11.8822 2.146 14.5732 4.837 14.5732 8.146C14.5732 11.455 11.8822 14.146 8.57324 14.146C5.26424 14.146 2.57324 11.455 2.57324 8.146C2.57324 4.837 5.26424 2.146 8.57324 2.146Z" fill="#C8C8C8"/>
</svg>
