<svg width="20" height="20" viewBox="0 0 20 20" fill="none" xmlns="http://www.w3.org/2000/svg">
<path d="M11.0146 19.4375H8.42292C7.88709 19.4375 7.45104 19.0015 7.45104 18.4656V17.1568C6.97095 17.0106 6.50624 16.8179 6.06353 16.5815L5.22739 17.417C4.84998 17.7941 4.21502 17.7886 3.8483 17.4225L2.01534 15.5898C1.83198 15.4058 1.73123 15.1619 1.73123 14.9021C1.73123 14.6423 1.83231 14.3983 2.01567 14.215L2.85666 13.374C2.62017 12.9313 2.42726 12.4668 2.28067 11.9868L0.971875 11.9865C0.436048 11.9865 0 11.5504 0 11.0146V8.42292C0 7.88709 0.436048 7.45104 0.971875 7.45104H2.28067C2.42703 6.97098 2.61972 6.50629 2.85602 6.06353L2.01567 5.22253C1.83384 5.04017 1.73171 4.79317 1.73165 4.53565C1.73159 4.27812 1.8336 4.03108 2.01534 3.84863L3.8483 2.01567C4.21599 1.6483 4.85581 1.64862 5.22253 2.01534L6.06385 2.85666C6.50646 2.62011 6.97105 2.4272 7.45104 2.28067V0.971875C7.45104 0.436048 7.88709 0 8.42292 0H11.0146C11.5504 0 11.9865 0.436048 11.9865 0.971875V2.28067C12.4666 2.42687 12.9313 2.61956 13.374 2.85602L14.215 2.01567C14.582 1.64862 15.2222 1.64862 15.5892 2.01567L17.4218 3.8483C17.6037 4.03072 17.7058 4.27777 17.7059 4.53535C17.7059 4.79292 17.6039 5.04003 17.4222 5.22253L16.5808 6.06385C16.8174 6.50646 17.0103 6.97105 17.1568 7.45104H18.4656C19.0015 7.45104 19.4375 7.88709 19.4375 8.42292V11.0146C19.4375 11.5504 19.0015 11.9865 18.4656 11.9865H17.1568C17.0105 12.4664 16.8178 12.931 16.5815 13.3736L17.417 14.2098C17.6055 14.3983 17.7066 14.6423 17.7066 14.9021C17.7066 15.1619 17.6055 15.4058 17.4222 15.5892L15.5895 17.4218C15.2225 17.7889 14.5823 17.7889 14.2153 17.4218L13.3743 16.5808C12.9316 16.8173 12.4671 17.0102 11.9871 17.1568L11.9865 18.4656C11.9865 19.0015 11.5504 19.4375 11.0146 19.4375ZM8.74687 18.1417H10.6906L10.6909 16.9119C10.6909 16.4726 10.9883 16.0865 11.4137 15.9737C11.949 15.8288 12.4633 15.6152 12.9438 15.3381C13.3059 15.1266 13.8123 15.1865 14.1175 15.4923L14.9021 16.2766L16.2766 14.9021L15.4917 14.1165C15.3399 13.9646 15.2428 13.7667 15.2155 13.5538C15.1882 13.3408 15.2322 13.1248 15.3407 12.9395C15.617 12.4596 15.8298 11.9458 15.9741 11.4111C16.0294 11.2045 16.1514 11.0219 16.321 10.8916C16.4907 10.7613 16.6987 10.6907 16.9126 10.6906H18.1417V8.74687L16.9119 8.74655C16.6978 8.74623 16.4897 8.67521 16.3201 8.54452C16.1504 8.41383 16.0287 8.23078 15.9737 8.0238C15.8285 7.48854 15.6147 6.97427 15.3378 6.49374C15.2304 6.30851 15.1873 6.09295 15.2152 5.88065C15.2431 5.66835 15.3404 5.47125 15.492 5.32004L16.2766 4.53542L14.9021 3.16086L14.1165 3.94581C14.0266 4.03612 13.9196 4.1077 13.8018 4.15641C13.6841 4.20512 13.5578 4.23 13.4303 4.2296C13.2586 4.2296 13.0886 4.1836 12.9399 4.09678C12.4598 3.82042 11.9459 3.60753 11.4111 3.46344C11.2045 3.4081 11.0219 3.28614 10.8916 3.11646C10.7613 2.94677 10.6907 2.73885 10.6906 2.52493V1.29583H8.74687L8.74655 2.52526C8.74632 2.73956 8.67525 2.94777 8.54443 3.11751C8.4136 3.28724 8.23033 3.40897 8.02315 3.46376C7.4881 3.60887 6.97404 3.82251 6.49374 4.09937C6.13026 4.31124 5.62554 4.25066 5.32037 3.94581L4.53542 3.16086L3.16086 4.53542L3.94581 5.32069C4.09727 5.4726 4.19423 5.67034 4.2216 5.8831C4.24896 6.09586 4.20519 6.31169 4.0971 6.49698C3.82078 6.9772 3.60779 7.49116 3.46344 8.02607C3.40826 8.23282 3.28635 8.41557 3.11664 8.54591C2.94693 8.67626 2.73892 8.7469 2.52493 8.74687H1.29583V10.6906L2.52526 10.6909C2.73956 10.6912 2.94777 10.7622 3.11751 10.8931C3.28724 11.0239 3.40897 11.2072 3.46376 11.4143C3.60881 11.9494 3.82245 12.4635 4.09937 12.9438C4.20672 13.1289 4.24987 13.3443 4.2221 13.5566C4.19433 13.7688 4.0972 13.9658 3.94581 14.1171L3.16086 14.9021L4.53542 16.2766L5.32069 15.4917C5.62521 15.1872 6.1254 15.1227 6.49796 15.3407C6.9758 15.6161 7.49121 15.8299 8.02639 15.9741C8.23303 16.0294 8.41564 16.1514 8.54591 16.321C8.67617 16.4907 8.74681 16.6987 8.74687 16.9126V18.1417Z" fill="white" fill-opacity="0.7"/>
<path d="M9.71882 13.2824C7.75401 13.2824 6.15527 11.6836 6.15527 9.71882C6.15527 7.75401 7.75401 6.15527 9.71882 6.15527C11.6836 6.15527 13.2824 7.75401 13.2824 9.71882C13.2824 11.6836 11.6836 13.2824 9.71882 13.2824ZM9.71882 7.45111C8.46834 7.45111 7.45111 8.46834 7.45111 9.71882C7.45111 10.969 8.46834 11.9865 9.71882 11.9865C10.969 11.9865 11.9865 10.969 11.9865 9.71882C11.9865 8.46834 10.969 7.45111 9.71882 7.45111Z" fill="white" fill-opacity="0.7"/>
</svg>
