<svg width="32" height="31" viewBox="0 0 32 31" fill="none" xmlns="http://www.w3.org/2000/svg">
<path d="M31.1285 15.1562C31.1285 23.5265 24.3424 30.3125 15.9702 30.3125C7.59923 30.3125 0.814453 23.5265 0.814453 15.1562C0.814453 6.78045 7.59923 0 15.9702 0C24.3424 0 31.1285 6.78045 31.1285 15.1562Z" fill="url(#paint0_linear_134_12126)"/>
<path d="M28.8462 15.1563C28.8462 22.2682 23.0803 28.0296 15.97 28.0296C8.86071 28.0296 3.09766 22.2684 3.09766 15.1563C3.09766 8.04603 8.86096 2.28076 15.97 2.28076C23.0803 2.28076 28.8462 8.04603 28.8462 15.1563Z" fill="url(#paint1_linear_134_12126)"/>
<path d="M27.3401 15.1564C27.3401 21.4345 22.2486 26.5223 15.97 26.5223C9.69397 26.5223 4.60254 21.4345 4.60254 15.1564C4.60254 8.87712 9.69397 3.78906 15.97 3.78906C22.2489 3.78906 27.3401 8.87712 27.3401 15.1564Z" fill="url(#paint2_linear_134_12126)"/>
<path d="M26.887 15.1564C26.887 21.1816 21.9968 26.0715 15.9695 26.0715C9.94193 26.0715 5.05469 21.1816 5.05469 15.1564C5.05469 9.12561 9.94218 4.24023 15.9695 4.24023C21.9968 4.24023 26.887 9.12561 26.887 15.1564Z" fill="url(#paint3_radial_134_12126)"/>
<path d="M15.97 2.28076C8.8607 2.28076 3.09766 8.04603 3.09766 15.1563C3.09766 22.2682 8.86096 28.0296 15.97 28.0296C23.0803 28.0296 28.8462 22.2684 28.8462 15.1563C28.8464 8.04603 23.0806 2.28076 15.97 2.28076ZM15.97 27.8019C8.997 27.8019 3.32465 22.1273 3.32465 15.1563C3.32465 8.18005 8.997 2.50675 15.97 2.50675C22.9456 2.50675 28.6194 8.18005 28.6194 15.1563C28.6194 22.1273 22.9458 27.8019 15.97 27.8019Z" fill="url(#paint4_linear_134_12126)"/>
<path d="M15.97 3.78906C9.69397 3.78906 4.60254 8.87712 4.60254 15.1564C4.60254 21.4345 9.69397 26.5223 15.97 26.5223C22.2486 26.5223 27.3401 21.4345 27.3401 15.1564C27.3401 8.87712 22.2489 3.78906 15.97 3.78906ZM15.97 26.2991C9.82723 26.2991 4.82953 21.2989 4.82953 15.1564C4.82953 9.01114 9.82749 4.01404 15.97 4.01404C22.1154 4.01404 27.1131 9.0114 27.1131 15.1564C27.1133 21.2989 22.1154 26.2991 15.97 26.2991Z" fill="url(#paint5_linear_134_12126)"/>
<path d="M15.9702 0C7.59923 0 0.814453 6.7807 0.814453 15.1562C0.814453 23.5265 7.59923 30.3125 15.9702 30.3125C24.3424 30.3125 31.1285 23.5265 31.1285 15.1562C31.1285 6.78045 24.3424 0 15.9702 0ZM15.9702 30.0875C7.73959 30.0875 1.03993 23.3871 1.03993 15.1562C1.03993 6.92156 7.73959 0.223456 15.9702 0.223456C24.2064 0.223456 30.9017 6.92156 30.9017 15.1562C30.9017 23.3869 24.2064 30.0875 15.9702 30.0875Z" fill="url(#paint6_linear_134_12126)"/>
<path d="M30.4961 17.7765C32.8732 1.76546 11.4156 -5.48597 3.1875 7.77926C11.091 -6.57842 33.7381 1.68135 30.4961 17.7765Z" fill="white"/>
<path d="M30.4961 17.7765C32.8732 1.76546 11.4156 -5.48597 3.1875 7.77927C11.091 -6.57842 33.7381 1.68135 30.4961 17.7765Z" fill="white"/>
<path opacity="0.8" d="M28.366 17.2445C30.3669 3.42314 12.3215 -2.83667 5.40625 8.61583C12.0492 -3.77661 31.0927 3.35195 28.366 17.2445Z" fill="url(#paint7_linear_134_12126)"/>
<path d="M26.7778 16.8283C28.5274 5.05048 12.7429 -0.280545 6.68848 9.47501C12.5045 -1.0824 29.1633 4.9917 26.7778 16.8283Z" fill="white"/>
<path d="M25.8725 26.0447C18.7822 32.1251 10.376 30.5609 4.80477 24.5167C1.09962 20.4912 -0.0183782 14.1759 2.87683 8.25C-5.06827 22.5836 13.9781 37.3583 25.8725 26.0447Z" fill="white"/>
<path opacity="0.8" d="M24.2909 24.5226C13.6579 33.5794 -1.24606 21.6354 4.76273 9.67871C-2.18723 21.9103 13.9819 34.23 24.2909 24.5226Z" fill="url(#paint8_linear_134_12126)"/>
<path opacity="0.8" d="M23.8727 22.7624C15.3842 31.1126 1.77641 21.491 6.10249 10.8589C0.990791 21.7733 15.7075 31.6659 23.8727 22.7624Z" fill="url(#paint9_linear_134_12126)"/>
<g filter="url(#filter0_d_134_12126)">
<mask id="path-15-outside-1_134_12126" maskUnits="userSpaceOnUse" x="11.5977" y="8.71436" width="8" height="12" fill="black">
<rect fill="white" x="11.5977" y="8.71436" width="8" height="12"/>
<path d="M19.0898 18.1763V19.7144H12.2812V18.4019L15.501 14.9497C15.8245 14.5897 16.0798 14.2729 16.2666 13.9995C16.4535 13.7215 16.5879 13.4731 16.6699 13.2544C16.7565 13.0311 16.7998 12.8192 16.7998 12.6187C16.7998 12.3179 16.7497 12.0604 16.6494 11.8462C16.5492 11.6274 16.401 11.4588 16.2051 11.3403C16.0137 11.2218 15.7767 11.1626 15.4941 11.1626C15.1934 11.1626 14.9336 11.2355 14.7148 11.3813C14.5007 11.5272 14.3366 11.73 14.2227 11.9897C14.1133 12.2495 14.0586 12.5435 14.0586 12.8716H12.083C12.083 12.2791 12.2243 11.7368 12.5068 11.2446C12.7894 10.7479 13.1882 10.3537 13.7031 10.062C14.2181 9.76579 14.8288 9.61768 15.5352 9.61768C16.2324 9.61768 16.8203 9.73161 17.2988 9.95947C17.7819 10.1828 18.1465 10.5063 18.3926 10.9302C18.6432 11.3494 18.7686 11.8507 18.7686 12.4341C18.7686 12.7622 18.7161 13.0835 18.6113 13.3979C18.5065 13.7078 18.3561 14.0177 18.1602 14.3276C17.9688 14.633 17.7363 14.9429 17.4629 15.2573C17.1895 15.5718 16.8864 15.8976 16.5537 16.2349L14.8242 18.1763H19.0898Z"/>
</mask>
<path d="M19.0898 18.1763V19.7144H12.2812V18.4019L15.501 14.9497C15.8245 14.5897 16.0798 14.2729 16.2666 13.9995C16.4535 13.7215 16.5879 13.4731 16.6699 13.2544C16.7565 13.0311 16.7998 12.8192 16.7998 12.6187C16.7998 12.3179 16.7497 12.0604 16.6494 11.8462C16.5492 11.6274 16.401 11.4588 16.2051 11.3403C16.0137 11.2218 15.7767 11.1626 15.4941 11.1626C15.1934 11.1626 14.9336 11.2355 14.7148 11.3813C14.5007 11.5272 14.3366 11.73 14.2227 11.9897C14.1133 12.2495 14.0586 12.5435 14.0586 12.8716H12.083C12.083 12.2791 12.2243 11.7368 12.5068 11.2446C12.7894 10.7479 13.1882 10.3537 13.7031 10.062C14.2181 9.76579 14.8288 9.61768 15.5352 9.61768C16.2324 9.61768 16.8203 9.73161 17.2988 9.95947C17.7819 10.1828 18.1465 10.5063 18.3926 10.9302C18.6432 11.3494 18.7686 11.8507 18.7686 12.4341C18.7686 12.7622 18.7161 13.0835 18.6113 13.3979C18.5065 13.7078 18.3561 14.0177 18.1602 14.3276C17.9688 14.633 17.7363 14.9429 17.4629 15.2573C17.1895 15.5718 16.8864 15.8976 16.5537 16.2349L14.8242 18.1763H19.0898Z" fill="white"/>
<path d="M19.0898 18.1763H19.4898V17.7763H19.0898V18.1763ZM19.0898 19.7144V20.1144H19.4898V19.7144H19.0898ZM12.2812 19.7144H11.8812V20.1144H12.2812V19.7144ZM12.2812 18.4019L11.9887 18.129L11.8812 18.2443V18.4019H12.2812ZM15.501 14.9497L15.7935 15.2226L15.7985 15.2171L15.501 14.9497ZM16.2666 13.9995L16.5969 14.2252L16.5986 14.2226L16.2666 13.9995ZM16.6699 13.2544L16.297 13.1098L16.2954 13.1139L16.6699 13.2544ZM16.6494 11.8462L16.2858 12.0129L16.2871 12.0158L16.6494 11.8462ZM16.2051 11.3403L15.9945 11.6805L15.9981 11.6826L16.2051 11.3403ZM14.7148 11.3813L14.493 11.0485L14.4897 11.0507L14.7148 11.3813ZM14.2227 11.9897L13.8563 11.8291L13.854 11.8345L14.2227 11.9897ZM14.0586 12.8716V13.2716H14.4586V12.8716H14.0586ZM12.083 12.8716H11.683V13.2716H12.083V12.8716ZM12.5068 11.2446L12.8537 11.4438L12.8545 11.4424L12.5068 11.2446ZM13.7031 10.062L13.9003 10.4101L13.9026 10.4087L13.7031 10.062ZM17.2988 9.95947L17.1268 10.3206L17.131 10.3226L17.2988 9.95947ZM18.3926 10.9302L18.0466 11.131L18.0493 11.1354L18.3926 10.9302ZM18.6113 13.3979L18.9902 13.5261L18.9908 13.5244L18.6113 13.3979ZM18.1602 14.3276L17.8221 14.1139L17.8212 14.1152L18.1602 14.3276ZM16.5537 16.2349L16.269 15.954L16.2618 15.9612L16.255 15.9688L16.5537 16.2349ZM14.8242 18.1763L14.5255 17.9102L13.9322 18.5763H14.8242V18.1763ZM18.6898 18.1763V19.7144H19.4898V18.1763H18.6898ZM19.0898 19.3144H12.2812V20.1144H19.0898V19.3144ZM12.6813 19.7144V18.4019H11.8812V19.7144H12.6813ZM12.5738 18.6747L15.7935 15.2225L15.2085 14.6769L11.9887 18.129L12.5738 18.6747ZM15.7985 15.2171C16.129 14.8493 16.3966 14.5182 16.5969 14.2252L15.9363 13.7738C15.7629 14.0277 15.5201 14.33 15.2035 14.6823L15.7985 15.2171ZM16.5986 14.2226C16.796 13.929 16.9479 13.6523 17.0445 13.3948L16.2954 13.1139C16.2279 13.294 16.1109 13.5141 15.9346 13.7764L16.5986 14.2226ZM17.0429 13.399C17.1439 13.1383 17.1998 12.8772 17.1998 12.6187H16.3998C16.3998 12.7611 16.3691 12.9238 16.297 13.1098L17.0429 13.399ZM17.1998 12.6187C17.1998 12.2747 17.1426 11.9563 17.0117 11.6766L16.2871 12.0158C16.3568 12.1645 16.3998 12.3611 16.3998 12.6187H17.1998ZM17.013 11.6795C16.8811 11.3918 16.6803 11.1602 16.412 10.998L15.9981 11.6826C16.1218 11.7574 16.2172 11.8631 16.2858 12.0129L17.013 11.6795ZM16.4156 11.0002C16.1467 10.8337 15.8322 10.7626 15.4941 10.7626V11.5626C15.7212 11.5626 15.8807 11.61 15.9945 11.6804L16.4156 11.0002ZM15.4941 10.7626C15.1261 10.7626 14.7865 10.8528 14.493 11.0485L14.9367 11.7142C15.0807 11.6182 15.2606 11.5626 15.4941 11.5626V10.7626ZM14.4897 11.0507C14.2076 11.2428 13.9975 11.5073 13.8563 11.8291L14.589 12.1504C14.6757 11.9527 14.7937 11.8116 14.94 11.712L14.4897 11.0507ZM13.854 11.8345C13.7208 12.1508 13.6586 12.4988 13.6586 12.8716H14.4586C14.4586 12.5881 14.5057 12.3482 14.5913 12.145L13.854 11.8345ZM14.0586 12.4716H12.083V13.2716H14.0586V12.4716ZM12.483 12.8716C12.483 12.3458 12.6075 11.8726 12.8537 11.4438L12.1599 11.0455C11.841 11.601 11.683 12.2124 11.683 12.8716H12.483ZM12.8545 11.4424C13.1001 11.0107 13.4458 10.6675 13.9003 10.4101L13.506 9.71396C12.9305 10.0399 12.4787 10.485 12.1591 11.0469L12.8545 11.4424ZM13.9026 10.4087C14.3463 10.1535 14.8855 10.0177 15.5352 10.0177V9.21768C14.7721 9.21768 14.0899 9.37808 13.5037 9.71528L13.9026 10.4087ZM15.5352 10.0177C16.1909 10.0177 16.7162 10.1251 17.1269 10.3206L17.4708 9.59833C16.9244 9.33814 16.2739 9.21768 15.5352 9.21768V10.0177ZM17.131 10.3226C17.5462 10.5145 17.8454 10.7845 18.0467 11.131L18.7385 10.7293C18.4475 10.2282 18.0176 9.85108 17.4667 9.59639L17.131 10.3226ZM18.0493 11.1354C18.2562 11.4816 18.3686 11.9089 18.3686 12.4341H19.1686C19.1686 11.7926 19.0303 11.2173 18.7359 10.7249L18.0493 11.1354ZM18.3686 12.4341C18.3686 12.7188 18.3232 12.9974 18.2319 13.2715L18.9908 13.5244C19.1091 13.1696 19.1686 12.8056 19.1686 12.4341H18.3686ZM18.2324 13.2698C18.1389 13.5463 18.0031 13.8276 17.8221 14.1139L18.4982 14.5414C18.7091 14.2079 18.8741 13.8694 18.9902 13.5261L18.2324 13.2698ZM17.8212 14.1152C17.6424 14.4004 17.4229 14.6937 17.161 14.9949L17.7647 15.5198C18.0497 15.192 18.2951 14.8655 18.4991 14.5401L17.8212 14.1152ZM17.161 14.9949C16.8938 15.3022 16.5965 15.6219 16.269 15.954L16.8385 16.5158C17.1763 16.1734 17.4851 15.8414 17.7647 15.5198L17.161 14.9949ZM16.255 15.9688L14.5255 17.9102L15.1229 18.4423L16.8524 16.5009L16.255 15.9688ZM14.8242 18.5763H19.0898V17.7763H14.8242V18.5763Z" fill="url(#paint10_linear_134_12126)" mask="url(#path-15-outside-1_134_12126)"/>
</g>
<defs>
<filter id="filter0_d_134_12126" x="11.283" y="9.61768" width="8.60684" height="11.6967" filterUnits="userSpaceOnUse" color-interpolation-filters="sRGB">
<feFlood flood-opacity="0" result="BackgroundImageFix"/>
<feColorMatrix in="SourceAlpha" type="matrix" values="0 0 0 0 0 0 0 0 0 0 0 0 0 0 0 0 0 0 127 0" result="hardAlpha"/>
<feOffset dy="0.8"/>
<feGaussianBlur stdDeviation="0.4"/>
<feComposite in2="hardAlpha" operator="out"/>
<feColorMatrix type="matrix" values="0 0 0 0 0.145098 0 0 0 0 0.145098 0 0 0 0 0.145098 0 0 0 0.6 0"/>
<feBlend mode="normal" in2="BackgroundImageFix" result="effect1_dropShadow_134_12126"/>
<feBlend mode="normal" in="SourceGraphic" in2="effect1_dropShadow_134_12126" result="shape"/>
</filter>
<linearGradient id="paint0_linear_134_12126" x1="5.45681" y1="4.64041" x2="25.3321" y2="24.5151" gradientUnits="userSpaceOnUse">
<stop stop-color="#D9D9D9"/>
<stop offset="0.0806" stop-color="white"/>
<stop offset="0.1935" stop-color="#D7D7D7"/>
<stop offset="0.2642" stop-color="#B4B4B4"/>
<stop offset="0.3149" stop-color="#9D9D9D"/>
<stop offset="0.3617" stop-color="#8C8C8C"/>
<stop offset="0.3685" stop-color="#8B8B8B"/>
<stop offset="0.4708" stop-color="#878787"/>
<stop offset="0.5185" stop-color="#949494"/>
<stop offset="0.5587" stop-color="#A3A3A3"/>
<stop offset="0.6761" stop-color="#D3D3D3"/>
<stop offset="0.7018" stop-color="#D0D0D0"/>
<stop offset="0.7227" stop-color="#C6C6C6"/>
<stop offset="0.742" stop-color="#B5B5B5"/>
<stop offset="0.7603" stop-color="#9C9C9C"/>
<stop offset="0.7777" stop-color="#7E7E7E"/>
<stop offset="0.7852" stop-color="#6E6E6E"/>
<stop offset="0.8092" stop-color="#767676"/>
<stop offset="0.8464" stop-color="#8C8C8C"/>
<stop offset="0.8921" stop-color="#AFAFAF"/>
<stop offset="0.9377" stop-color="#DADADA"/>
</linearGradient>
<linearGradient id="paint1_linear_134_12126" x1="2.85853" y1="2.04304" x2="27.9804" y2="27.1641" gradientUnits="userSpaceOnUse">
<stop offset="0.1483" stop-color="#D9D9D9"/>
<stop offset="0.2053" stop-color="#D7D7D7"/>
<stop offset="0.2892" stop-color="#B4B4B4"/>
<stop offset="0.3269" stop-color="#9D9D9D"/>
<stop offset="0.3617" stop-color="#8C8C8C"/>
<stop offset="0.3685" stop-color="#8B8B8B"/>
<stop offset="0.4708" stop-color="#878787"/>
<stop offset="0.5185" stop-color="#949494"/>
<stop offset="0.5587" stop-color="#A3A3A3"/>
<stop offset="0.6761" stop-color="#D3D3D3"/>
<stop offset="0.9021" stop-color="#6E6E6E"/>
<stop offset="0.916" stop-color="#767676"/>
<stop offset="0.9376" stop-color="#8C8C8C"/>
<stop offset="0.964" stop-color="#AFAFAF"/>
<stop offset="0.9905" stop-color="#DADADA"/>
</linearGradient>
<linearGradient id="paint2_linear_134_12126" x1="8.44347" y1="6.51774" x2="24.78" y2="25.2628" gradientUnits="userSpaceOnUse">
<stop stop-color="#D9D9D9"/>
<stop offset="0.0645" stop-color="white"/>
<stop offset="0.1935" stop-color="#D7D7D7"/>
<stop offset="0.2642" stop-color="#B4B4B4"/>
<stop offset="0.2925" stop-color="#9D9D9D"/>
<stop offset="0.3187" stop-color="#8C8C8C"/>
<stop offset="0.3915" stop-color="#878787"/>
<stop offset="0.4302" stop-color="#B1B1B1"/>
<stop offset="0.463" stop-color="#CECECE"/>
<stop offset="0.4818" stop-color="#D9D9D9"/>
<stop offset="0.5556" stop-color="#F1F1F1"/>
<stop offset="0.6128" stop-color="white"/>
<stop offset="0.6917" stop-color="#DADADA"/>
<stop offset="0.7842" stop-color="#D3D3D3"/>
<stop offset="0.8284" stop-color="#AFAFAF"/>
<stop offset="0.8922" stop-color="#808080"/>
<stop offset="0.9241" stop-color="#6E6E6E"/>
</linearGradient>
<radialGradient id="paint3_radial_134_12126" cx="0" cy="0" r="1" gradientUnits="userSpaceOnUse" gradientTransform="translate(18.3298 7.77826) scale(17.6867 17.6873)">
<stop offset="0.3816" stop-color="#E5E5E5"/>
<stop offset="0.5772" stop-color="#DADADA"/>
<stop offset="0.7623" stop-color="#D3D3D3"/>
<stop offset="0.8015" stop-color="#CCCCCC"/>
<stop offset="0.8581" stop-color="#B9B9B9"/>
<stop offset="0.9254" stop-color="#999999"/>
<stop offset="1" stop-color="#6E6E6E"/>
</radialGradient>
<linearGradient id="paint4_linear_134_12126" x1="10.6836" y1="3.41322" x2="20.9232" y2="26.1505" gradientUnits="userSpaceOnUse">
<stop stop-color="#B4B4B4"/>
<stop offset="0.0734" stop-color="#9D9D9D"/>
<stop offset="0.1413" stop-color="#8C8C8C"/>
<stop offset="0.1461" stop-color="#8B8B8B"/>
<stop offset="0.2181" stop-color="#878787"/>
<stop offset="0.3124" stop-color="#949494"/>
<stop offset="0.3921" stop-color="#A3A3A3"/>
<stop offset="0.6615" stop-color="#6E6E6E"/>
<stop offset="0.8817" stop-color="#6E6E6E"/>
<stop offset="1" stop-color="#252525"/>
</linearGradient>
<linearGradient id="paint5_linear_134_12126" x1="10.6866" y1="3.42023" x2="20.9248" y2="26.1543" gradientUnits="userSpaceOnUse">
<stop stop-color="#B4B4B4"/>
<stop offset="0.0734" stop-color="#9D9D9D"/>
<stop offset="0.1413" stop-color="#8C8C8C"/>
<stop offset="0.1461" stop-color="#8B8B8B"/>
<stop offset="0.2181" stop-color="#878787"/>
<stop offset="0.3124" stop-color="#949494"/>
<stop offset="0.3921" stop-color="#A3A3A3"/>
<stop offset="0.6615" stop-color="#6E6E6E"/>
<stop offset="0.8817" stop-color="#6E6E6E"/>
<stop offset="1" stop-color="#252525"/>
</linearGradient>
<linearGradient id="paint6_linear_134_12126" x1="4.8497" y1="0.136506" x2="25.478" y2="27.9913" gradientUnits="userSpaceOnUse">
<stop stop-color="#B4B4B4"/>
<stop offset="0.0734" stop-color="#9D9D9D"/>
<stop offset="0.1413" stop-color="#8C8C8C"/>
<stop offset="0.1461" stop-color="#8B8B8B"/>
<stop offset="0.2181" stop-color="#878787"/>
<stop offset="0.3124" stop-color="#949494"/>
<stop offset="0.3921" stop-color="#A3A3A3"/>
<stop offset="0.6615" stop-color="#6E6E6E"/>
<stop offset="0.8817" stop-color="#6E6E6E"/>
<stop offset="1" stop-color="#252525"/>
</linearGradient>
<linearGradient id="paint7_linear_134_12126" x1="16.7228" y1="13.2936" x2="21.4657" y2="2.7541" gradientUnits="userSpaceOnUse">
<stop stop-color="white"/>
<stop offset="0.0776" stop-color="#E0E0E0"/>
<stop offset="0.1997" stop-color="#B4B4B4"/>
<stop offset="0.2617" stop-color="#A3A3A3"/>
<stop offset="0.6615" stop-color="#6E6E6E"/>
<stop offset="0.7318" stop-color="#666666"/>
<stop offset="0.8407" stop-color="#505050"/>
<stop offset="0.974" stop-color="#2D2D2D"/>
<stop offset="1" stop-color="#252525"/>
</linearGradient>
<linearGradient id="paint8_linear_134_12126" x1="14.7478" y1="16.7685" x2="8.3487" y2="26.3979" gradientUnits="userSpaceOnUse">
<stop stop-color="white"/>
<stop offset="0.0776" stop-color="#E0E0E0"/>
<stop offset="0.1997" stop-color="#B4B4B4"/>
<stop offset="0.2617" stop-color="#A3A3A3"/>
<stop offset="0.6615" stop-color="#6E6E6E"/>
<stop offset="0.7318" stop-color="#666666"/>
<stop offset="0.8407" stop-color="#505050"/>
<stop offset="0.974" stop-color="#2D2D2D"/>
<stop offset="1" stop-color="#252525"/>
</linearGradient>
<linearGradient id="paint9_linear_134_12126" x1="14.6558" y1="17.2031" x2="8.83558" y2="24.0904" gradientUnits="userSpaceOnUse">
<stop stop-color="white"/>
<stop offset="0.0776" stop-color="#E0E0E0"/>
<stop offset="0.1997" stop-color="#B4B4B4"/>
<stop offset="0.2617" stop-color="#A3A3A3"/>
<stop offset="0.6615" stop-color="#6E6E6E"/>
<stop offset="0.7318" stop-color="#666666"/>
<stop offset="0.8407" stop-color="#505050"/>
<stop offset="0.974" stop-color="#2D2D2D"/>
<stop offset="1" stop-color="#252525"/>
</linearGradient>
<linearGradient id="paint10_linear_134_12126" x1="18.6888" y1="7.97369" x2="14.5081" y2="19.7514" gradientUnits="userSpaceOnUse">
<stop stop-color="#888888"/>
<stop offset="1" stop-color="#575757"/>
</linearGradient>
</defs>
</svg>
