<svg width="15" height="15" viewBox="0 0 15 15" fill="none" xmlns="http://www.w3.org/2000/svg">
<path d="M14.9743 5.98266C14.9438 5.89091 14.8877 5.80934 14.8123 5.74715C14.737 5.68496 14.6454 5.64463 14.5479 5.63069L10.0047 4.98464L7.9729 0.952252C7.79505 0.599249 7.20399 0.599249 7.02615 0.952252L4.99438 4.98464L0.451144 5.63069C0.35385 5.64484 0.262513 5.68528 0.187398 5.74747C0.112283 5.80966 0.0563693 5.89114 0.0259402 5.98274C-0.00448877 6.07435 -0.00822642 6.17245 0.0151475 6.26602C0.0385213 6.35959 0.0880802 6.44492 0.158254 6.51242L3.44549 9.65068L2.6692 14.0831C2.65257 14.1782 2.66342 14.2759 2.70054 14.3652C2.73765 14.4545 2.79953 14.5319 2.8792 14.5886C2.95886 14.6452 3.05313 14.6789 3.15134 14.6859C3.24955 14.6928 3.34778 14.6727 3.43494 14.6279L7.49952 12.5357L11.5636 14.6279C11.6507 14.6729 11.7489 14.6931 11.8472 14.6862C11.9454 14.6792 12.0397 14.6454 12.1193 14.5886C12.199 14.5319 12.2609 14.4545 12.298 14.3652C12.3351 14.2759 12.3459 14.1782 12.3293 14.0831L11.553 9.65068L14.8403 6.51242C14.9109 6.44517 14.9608 6.3599 14.9845 6.26628C15.0082 6.17266 15.0047 6.07442 14.9743 5.98266ZM10.6174 9.10076C10.5562 9.1593 10.5104 9.23149 10.4839 9.31115C10.4574 9.39081 10.4511 9.47557 10.4654 9.55816L11.1076 13.2262L7.74439 11.4948C7.66902 11.4552 7.58484 11.4344 7.49932 11.4343C7.4138 11.4343 7.32958 11.4548 7.25413 11.4943L3.8909 13.2257L4.53314 9.55765C4.54752 9.47505 4.5412 9.39027 4.51473 9.3106C4.48826 9.23092 4.44242 9.15873 4.38116 9.10024L1.6607 6.50312L5.42026 5.96819C5.50494 5.95615 5.58535 5.92412 5.65458 5.87487C5.72381 5.82562 5.77977 5.76062 5.81764 5.68548L7.49952 2.34875L9.18087 5.68548C9.21875 5.76062 9.27471 5.82562 9.34393 5.87487C9.41316 5.92412 9.49358 5.95615 9.57825 5.96819L13.3378 6.50312L10.6174 9.10076Z" fill="#C3C3C3"/>
</svg>
