<svg width="40" height="41" viewBox="0 0 40 41" fill="none" xmlns="http://www.w3.org/2000/svg">
<circle cx="20" cy="20.5" r="20" fill="#111216"/>
<path d="M28.4099 24.4099C28.3893 24.3655 28.3701 24.3287 28.3523 24.2993C28.0573 23.768 27.4937 23.116 26.6617 22.343L26.6441 22.3253L26.6353 22.3166L26.6264 22.3077H26.6175C26.2399 21.9477 26.0008 21.7057 25.9006 21.5818C25.7174 21.3458 25.6764 21.1068 25.7765 20.8647C25.8473 20.6818 26.113 20.2955 26.5731 19.7054C26.8152 19.3926 27.0068 19.1419 27.1484 18.953C28.1693 17.5958 28.6119 16.7285 28.4761 16.3508L28.4234 16.2625C28.388 16.2094 28.2965 16.1608 28.1492 16.1165C28.0015 16.0722 27.8127 16.0649 27.5825 16.0944L25.0334 16.112C24.9921 16.0974 24.9332 16.0987 24.8563 16.1165C24.7796 16.1342 24.7412 16.1431 24.7412 16.1431L24.6969 16.1653L24.6617 16.1919C24.6321 16.2095 24.5997 16.2405 24.5642 16.2847C24.529 16.3289 24.4995 16.3806 24.476 16.4396C24.1984 17.1536 23.8829 17.8175 23.5288 18.4311C23.3104 18.797 23.1099 19.1141 22.9268 19.3826C22.7439 19.651 22.5905 19.8488 22.4666 19.9756C22.3426 20.1025 22.2307 20.2041 22.1302 20.2809C22.0299 20.3577 21.9533 20.3902 21.9002 20.3783C21.847 20.3664 21.797 20.3547 21.7496 20.3429C21.667 20.2897 21.6006 20.2175 21.5505 20.126C21.5003 20.0346 21.4664 19.9195 21.4487 19.7808C21.4311 19.642 21.4207 19.5227 21.4177 19.4223C21.4149 19.3221 21.4162 19.1803 21.4222 18.9974C21.4283 18.8144 21.4311 18.6906 21.4311 18.6257C21.4311 18.4014 21.4355 18.158 21.4442 17.8954C21.4532 17.6328 21.4604 17.4248 21.4664 17.2715C21.4725 17.1181 21.4752 16.9558 21.4752 16.7846C21.4752 16.6135 21.4648 16.4793 21.4442 16.3819C21.4239 16.2846 21.3927 16.1902 21.3515 16.0986C21.3102 16.0072 21.2496 15.9364 21.1701 15.8862C21.0905 15.836 20.9914 15.7962 20.8736 15.7667C20.5608 15.6959 20.1625 15.6576 19.6786 15.6517C18.5811 15.6399 17.8759 15.7107 17.5631 15.8642C17.4392 15.929 17.3271 16.0176 17.2268 16.1296C17.1206 16.2595 17.1058 16.3303 17.1825 16.342C17.5366 16.395 17.7873 16.5219 17.9348 16.7225L17.988 16.8288C18.0293 16.9055 18.0706 17.0413 18.1119 17.236C18.1532 17.4307 18.1798 17.6461 18.1916 17.882C18.221 18.3128 18.221 18.6816 18.1916 18.9884C18.162 19.2953 18.1341 19.5343 18.1075 19.7054C18.0808 19.8765 18.041 20.0152 17.988 20.1214C17.9348 20.2276 17.8994 20.2925 17.8817 20.3161C17.864 20.3396 17.8492 20.3545 17.8375 20.3603C17.7608 20.3897 17.681 20.4047 17.5985 20.4047C17.5158 20.4047 17.4155 20.3633 17.2976 20.2807C17.1796 20.198 17.0572 20.0845 16.9303 19.9399C16.8034 19.7953 16.6603 19.5932 16.5009 19.3336C16.3417 19.074 16.1764 18.7671 16.0053 18.4131L15.8637 18.1563C15.7752 17.9912 15.6543 17.7506 15.5009 17.435C15.3473 17.1193 15.2116 16.8138 15.0937 16.5188C15.0465 16.3949 14.9757 16.3005 14.8813 16.2356L14.837 16.209C14.8075 16.1854 14.7603 16.1604 14.6954 16.1338C14.6305 16.1071 14.5627 16.088 14.4918 16.0763L12.0666 16.0939C11.8188 16.0939 11.6506 16.15 11.5621 16.2622L11.5266 16.3152C11.5089 16.3448 11.5 16.3919 11.5 16.4569C11.5 16.5218 11.5177 16.6015 11.5531 16.6958C11.9072 17.5279 12.2922 18.3304 12.7082 19.1034C13.1241 19.8764 13.4856 20.499 13.7924 20.9708C14.0992 21.4429 14.412 21.8885 14.7306 22.3074C15.0493 22.7264 15.2602 22.9949 15.3634 23.1128C15.4668 23.231 15.5479 23.3193 15.6069 23.3783L15.8282 23.5907C15.9698 23.7324 16.1778 23.902 16.4522 24.0997C16.7267 24.2974 17.0305 24.4921 17.3639 24.684C17.6974 24.8757 18.0853 25.032 18.5279 25.153C18.9704 25.274 19.4012 25.3226 19.8202 25.2992H20.8381C21.0445 25.2814 21.2009 25.2164 21.3072 25.1044L21.3424 25.06C21.3661 25.0248 21.3883 24.9701 21.4087 24.8965C21.4295 24.8227 21.4397 24.7415 21.4397 24.6531C21.4337 24.3994 21.453 24.1707 21.4972 23.9672C21.5413 23.7637 21.5916 23.6103 21.6478 23.5069C21.704 23.4037 21.7674 23.3166 21.838 23.246C21.9088 23.1752 21.9592 23.1323 21.9888 23.1176C22.0181 23.1027 22.0416 23.0926 22.0593 23.0866C22.2009 23.0394 22.3676 23.0851 22.5596 23.2239C22.7514 23.3626 22.9313 23.5338 23.0995 23.7373C23.2677 23.941 23.4698 24.1695 23.7058 24.4232C23.9419 24.6769 24.1484 24.8656 24.3254 24.9897L24.5023 25.0959C24.6205 25.1668 24.7739 25.2317 24.9628 25.2907C25.1513 25.3496 25.3165 25.3644 25.4583 25.3349L27.7241 25.2996C27.9482 25.2996 28.1226 25.2625 28.2463 25.1888C28.3703 25.1151 28.4439 25.0338 28.4676 24.9454C28.4913 24.857 28.4926 24.7566 28.4721 24.6444C28.4511 24.5324 28.4305 24.4541 28.4099 24.4099Z" fill="#57585C"/>
</svg>
